<svg width="45" height="41" viewBox="0 0 45 41" fill="none" xmlns="http://www.w3.org/2000/svg">
<path d="M43.5938 0.8125H1.40625C0.63 0.8125 0 1.43969 0 2.21875V5.03125C0 5.8075 0.63 6.4375 1.40625 6.4375H2.8125V28.9375C2.8125 30.49 4.07531 31.75 5.625 31.75H21.0938V35.215L17.5022 37.6112C16.8553 38.0416 16.6809 38.9163 17.1112 39.5603C17.5387 40.2044 18.4078 40.3787 19.0603 39.9513L22.5 37.6591L25.9397 39.9513C26.1787 40.1116 26.4487 40.1875 26.7188 40.1875C27.1716 40.1875 27.6159 39.9681 27.8888 39.5603C28.3191 38.9163 28.1447 38.0416 27.4978 37.6112L23.9062 35.215V31.75H39.375C40.9275 31.75 42.1875 30.49 42.1875 28.9375V6.4375H43.5938C44.37 6.4375 45 5.8075 45 5.03125V2.21875C45 1.43969 44.37 0.8125 43.5938 0.8125ZM11.25 26.125H8.4375V17.6875H11.25V26.125ZM16.875 26.125H14.0625V12.0625H16.875V26.125ZM29.5312 26.125C25.6528 26.125 22.5 22.9694 22.5 19.0938C22.5 15.6991 24.9188 12.8584 28.125 12.2059V20.5H36.4191C35.7666 23.7062 32.9287 26.125 29.5312 26.125ZM30.9375 17.6875V12.2059C33.6881 12.7656 35.8594 14.9369 36.4191 17.6875H30.9375Z" fill="#DA251D"/>
</svg>
