<svg width="52" height="40" viewBox="0 0 52 40" fill="none" xmlns="http://www.w3.org/2000/svg">
<path d="M14.7727 29.4118C11.8353 29.4118 9.45455 31.7818 9.45455 34.7059C9.45455 37.63 11.8353 40 14.7727 40C17.7101 40 20.0909 37.63 20.0909 34.7059C20.0909 31.7818 17.7101 29.4118 14.7727 29.4118ZM14.7727 37.0588C13.4674 37.0588 12.4091 36.0053 12.4091 34.7059C12.4091 33.4065 13.4674 32.3529 14.7727 32.3529C16.078 32.3529 17.1364 33.4065 17.1364 34.7059C17.1364 36.0053 16.078 37.0588 14.7727 37.0588ZM50.4944 20.2282L43.0625 11.96C41.9415 10.7129 40.3402 10 38.659 10H29.5455V3.52941C29.5455 1.58294 27.9553 0 26 0H3.54545C1.59014 0 0 1.58294 0 3.52941V31.1765C0 33.1229 1.59014 34.7059 3.54545 34.7059H7.68182C7.68182 30.8076 10.8568 27.6471 14.7727 27.6471C18.6887 27.6471 21.8636 30.8076 21.8636 34.7059H24.2273H28.3636H32.5C32.5 30.8076 35.675 27.6471 39.5909 27.6471C43.5069 27.6471 46.6818 30.8076 46.6818 34.7059H48.4545C50.4128 34.7059 52 33.1259 52 31.1765V24.1512C52 22.7024 51.4658 21.3094 50.4944 20.2282ZM45.4498 23.1776C45.3558 23.3918 45.1431 23.5294 44.9091 23.5294H33.0909C32.7641 23.5294 32.5 23.2665 32.5 22.9412V15.8824C32.5 15.5571 32.7641 15.2941 33.0909 15.2941H37.8891C38.3849 15.2941 38.8611 15.5024 39.1962 15.8665L45.3446 22.5441C45.503 22.7153 45.5443 22.9647 45.4498 23.1776ZM39.5909 29.4118C36.6535 29.4118 34.2727 31.7818 34.2727 34.7059C34.2727 37.63 36.6535 40 39.5909 40C42.5283 40 44.9091 37.63 44.9091 34.7059C44.9091 31.7818 42.5283 29.4118 39.5909 29.4118ZM39.5909 37.0588C38.2856 37.0588 37.2273 36.0053 37.2273 34.7059C37.2273 33.4065 38.2856 32.3529 39.5909 32.3529C40.8962 32.3529 41.9545 33.4065 41.9545 34.7059C41.9545 36.0053 40.8962 37.0588 39.5909 37.0588Z" fill="#DA251D"/>
</svg>
