<svg width="60" height="60" viewBox="0 0 60 60" fill="none" xmlns="http://www.w3.org/2000/svg">
<rect width="60" height="60" fill="white" fill-opacity="0.1"/>
<g clip-path="url(#clip0_43_11)">
<path d="M15.1609 20.2797V43.1427C15.3608 43.1237 15.173 43.1355 18.9161 43.1319V25.9819C18.9161 25.5516 19.1641 25.1579 19.5578 24.9828C26.1859 22.0516 32.8141 22.0516 39.4422 24.9828C39.8359 25.1579 40.0839 25.5515 40.0839 25.9819V43.1319C43.8496 43.1356 43.6384 43.1237 43.8391 43.1428V20.2797C43.6001 20.3164 15.3556 20.3097 15.1609 20.2797Z" fill="white"/>
<path d="M45.7313 45.9901V46.351C45.7313 46.5515 45.5709 46.7157 45.3667 46.7157H13.6333C13.4292 46.7157 13.2687 46.5517 13.2687 46.351V45.9901C13.2687 44.8161 14.2202 43.861 15.3942 43.861H43.6057C44.7797 43.861 45.7313 44.8161 45.7313 45.9901Z" fill="white"/>
<path d="M47 12.6489V15.2593C47 16.4005 46.1214 17.341 45.0021 17.4359V18.1141C45.0021 18.9162 44.3458 19.5724 43.5438 19.5724H15.4563C14.6541 19.5724 13.9979 18.9161 13.9979 18.1141V17.4359C12.8786 17.341 12 16.4006 12 15.2594V12.6489C12 12.4484 12.1641 12.2843 12.3646 12.2843H46.6355C46.836 12.2844 47 12.4484 47 12.6489Z" fill="white"/>
<path d="M35.7854 41.3709C35.6724 42.0964 35.3479 42.6761 34.9542 43.1319H31.8954C31.5418 40.3538 29.1063 39.4167 28.5704 39.3474C28.2718 39.308 28.045 39.6266 28.2131 39.898C28.6651 41.3271 28.6433 42.3844 28.1365 43.1319H24.2354C22.7713 41.5433 22.4913 39.1666 25.2271 36.4308C25.5894 36.0686 26.0125 36.2185 26.1459 36.5074C26.3828 35.1568 27.2087 34.0765 28.0344 33.0075C29.962 30.534 29.7111 29.9307 29.8501 29.6058C29.8902 29.223 30.1053 29.1063 30.2839 29.0736C30.6365 29.0054 30.807 29.3196 30.8782 29.3907C32.198 30.8527 32.1251 32.4714 31.9647 33.9407C32.0631 33.8059 32.1798 33.6709 32.311 33.5397C32.7253 33.107 32.9716 33.2249 33.0839 33.2771C33.4943 33.4784 33.3136 33.951 33.3136 33.9881C33.2759 36.1673 36.3338 37.9285 35.7854 41.3709Z" fill="white"/>
<path d="M28.9787 43.1318C29.4271 42.1692 29.2813 41.0791 29.0917 40.3135C29.8136 40.6671 30.9146 41.4729 31.1589 43.1318H28.9787Z" fill="white"/>
</g>
<defs>
<clipPath id="clip0_43_11">
<rect width="35" height="35" fill="white" transform="translate(12 12)"/>
</clipPath>
</defs>
</svg>
