<svg width="57" height="57" viewBox="0 0 57 57" fill="none" xmlns="http://www.w3.org/2000/svg">
<circle r="27.5" transform="matrix(-1 0 0 1 28.5 28.5)" stroke="white" stroke-width="2"/>
<path d="M13 30C12.4477 30 12 29.5523 12 29C12 28.4477 12.4477 28 13 28L13 30ZM43.7071 28.2929C44.0976 28.6834 44.0976 29.3166 43.7071 29.7071L37.3431 36.0711C36.9526 36.4616 36.3195 36.4616 35.9289 36.0711C35.5384 35.6805 35.5384 35.0474 35.9289 34.6569L41.5858 29L35.9289 23.3431C35.5384 22.9526 35.5384 22.3195 35.9289 21.9289C36.3195 21.5384 36.9526 21.5384 37.3431 21.9289L43.7071 28.2929ZM13 28L43 28L43 30L13 30L13 28Z" fill="white"/>
</svg>
