<svg width="44" height="44" viewBox="0 0 44 44" fill="none" xmlns="http://www.w3.org/2000/svg">
<path d="M0.125 43.875H43.875V9.5H27.4688V24.3438C27.4688 24.4925 27.4263 24.6381 27.3464 24.7636C27.2665 24.889 27.1524 24.9891 27.0176 25.0519C26.8828 25.1148 26.7329 25.1378 26.5854 25.1184C26.4379 25.099 26.2991 25.0378 26.1852 24.9422L22.0273 21.4531L17.8086 24.9438C17.6945 25.0376 17.5561 25.0971 17.4095 25.1154C17.2629 25.1338 17.1141 25.1102 16.9803 25.0474C16.8466 24.9845 16.7334 24.8851 16.6539 24.7606C16.5745 24.636 16.5319 24.4915 16.5312 24.3438V9.5H0.125V43.875ZM3.25 30.5938C3.25 30.3865 3.33231 30.1878 3.47882 30.0413C3.62534 29.8948 3.82405 29.8125 4.03125 29.8125H19.6562C19.8635 29.8125 20.0622 29.8948 20.2087 30.0413C20.3552 30.1878 20.4375 30.3865 20.4375 30.5938V39.9688C20.4375 40.176 20.3552 40.3747 20.2087 40.5212C20.0622 40.6677 19.8635 40.75 19.6562 40.75H4.03125C3.82405 40.75 3.62534 40.6677 3.47882 40.5212C3.33231 40.3747 3.25 40.176 3.25 39.9688V30.5938Z" fill="#DA251D"/>
<path d="M17.9531 0.125H4.51404L0.607788 7.9375H16.6508L17.9531 0.125Z" fill="#DA251D"/>
<path d="M18.875 31.375H4.8125V39.1875H18.875V31.375ZM7.9375 37.625H7.15625C6.94905 37.625 6.75034 37.5427 6.60382 37.3962C6.45731 37.2497 6.375 37.051 6.375 36.8438C6.375 36.6365 6.45731 36.4378 6.60382 36.2913C6.75034 36.1448 6.94905 36.0625 7.15625 36.0625H7.9375C8.1447 36.0625 8.34341 36.1448 8.48993 36.2913C8.63644 36.4378 8.71875 36.6365 8.71875 36.8438C8.71875 37.051 8.63644 37.2497 8.48993 37.3962C8.34341 37.5427 8.1447 37.625 7.9375 37.625ZM7.9375 34.5H7.15625C6.94905 34.5 6.75034 34.4177 6.60382 34.2712C6.45731 34.1247 6.375 33.926 6.375 33.7188C6.375 33.5115 6.45731 33.3128 6.60382 33.1663C6.75034 33.0198 6.94905 32.9375 7.15625 32.9375H7.9375C8.1447 32.9375 8.34341 33.0198 8.48993 33.1663C8.63644 33.3128 8.71875 33.5115 8.71875 33.7188C8.71875 33.926 8.63644 34.1247 8.48993 34.2712C8.34341 34.4177 8.1447 34.5 7.9375 34.5ZM16.5312 37.625H11.0625C10.8553 37.625 10.6566 37.5427 10.5101 37.3962C10.3636 37.2497 10.2812 37.051 10.2812 36.8438C10.2812 36.6365 10.3636 36.4378 10.5101 36.2913C10.6566 36.1448 10.8553 36.0625 11.0625 36.0625H16.5312C16.7385 36.0625 16.9372 36.1448 17.0837 36.2913C17.2302 36.4378 17.3125 36.6365 17.3125 36.8438C17.3125 37.051 17.2302 37.2497 17.0837 37.3962C16.9372 37.5427 16.7385 37.625 16.5312 37.625ZM16.5312 34.5H11.0625C10.8553 34.5 10.6566 34.4177 10.5101 34.2712C10.3636 34.1247 10.2812 33.926 10.2812 33.7188C10.2812 33.5115 10.3636 33.3128 10.5101 33.1663C10.6566 33.0198 10.8553 32.9375 11.0625 32.9375H16.5312C16.7385 32.9375 16.9372 33.0198 17.0837 33.1663C17.2302 33.3128 17.3125 33.5115 17.3125 33.7188C17.3125 33.926 17.2302 34.1247 17.0837 34.2712C16.9372 34.4177 16.7385 34.5 16.5312 34.5Z" fill="#DA251D"/>
<path d="M18.0938 22.6828L21.5312 19.8359C21.6716 19.719 21.8486 19.655 22.0313 19.655C22.2139 19.655 22.3909 19.719 22.5312 19.8359L25.9062 22.6687V9.5H18.0938V22.6828Z" fill="#DA251D"/>
<path d="M25.7648 7.9375L24.4632 0.125H19.5367L18.2351 7.9375H25.7648Z" fill="#DA251D"/>
<path d="M43.3922 7.9375L39.4859 0.125H26.0469L27.3492 7.9375H43.3922Z" fill="#DA251D"/>
</svg>
