<svg width="60" height="60" viewBox="0 0 60 60" fill="none" xmlns="http://www.w3.org/2000/svg">
<rect width="60" height="60" fill="white" fill-opacity="0.1"/>
<g clip-path="url(#clip0_43_10)">
<path d="M44.9412 44.9412V41.8529H40.8235V44.9412H38.7647V38.7647C38.7647 33.6561 34.6086 29.5 29.5 29.5C24.3914 29.5 20.2353 33.6561 20.2353 38.7647V44.9412H18.1765V41.8529H14.0588V44.9412H12V47H47V44.9412H44.9412ZM29.8957 44.9412C30.8882 44.8428 32.0142 44.367 32.5662 43.2688L32.5663 43.2687C33.0736 42.2596 32.8886 40.8272 32.5567 39.5458L31.1509 40.448L29.5 37.4214L27.849 40.448L26.4433 39.5458C26.1114 40.8272 25.9265 42.2596 26.4337 43.2687C26.9858 44.367 28.1113 44.8429 29.1033 44.9412H25.0613C23.4805 42.8601 24.0442 40.1038 24.8735 37.6163L25.2922 36.3605L27.1005 37.5212L29.5 33.1218L31.8996 37.5212L33.7079 36.3605C34.3506 38.5327 36.0099 42.215 33.9386 44.9412H29.8957Z" fill="white"/>
<path d="M25.3824 16.1176H33.6177V14.0588H35.6765V12H23.3235V14.0588H25.3824V16.1176Z" fill="white"/>
<path d="M33.6176 21.7504V18.1765H25.3824V21.7504C27.9909 21.1242 30.8319 21.0817 33.6176 21.7504Z" fill="white"/>
<path d="M18.2768 37.259L14.2481 36.3395C13.9872 38.0026 14.0741 39.166 14.0588 39.7941H18.1765C18.1896 39.0176 18.1321 38.3428 18.2768 37.259Z" fill="white"/>
<path d="M35.2605 24.4305C33.7642 23.8294 32.1718 23.4655 30.5294 23.3582V27.4885C31.5531 27.5812 32.5379 27.8104 33.4652 28.1583L35.2605 24.4305Z" fill="white"/>
<path d="M20.045 32.5412L16.81 29.9614C15.8753 31.3029 15.166 32.7752 14.7021 34.3313L18.735 35.2518C19.0513 34.2847 19.4945 33.3747 20.045 32.5412Z" fill="white"/>
<path d="M40.8235 39.7941H44.9412C44.924 39.0842 45.01 37.9843 44.7519 36.3395L40.7232 37.259C40.868 38.3444 40.8104 39.02 40.8235 39.7941Z" fill="white"/>
<path d="M23.6811 29.0542L21.8849 25.3243C20.4991 26.1124 19.2212 27.1247 18.0965 28.3541L21.3298 30.9326C22.0251 30.2076 22.8157 29.5749 23.6811 29.0542Z" fill="white"/>
<path d="M25.5348 28.1583C26.4623 27.8104 27.4469 27.5811 28.4706 27.4885V23.3582C26.8282 23.4655 25.2358 23.8295 23.7395 24.4305L25.5348 28.1583Z" fill="white"/>
<path d="M37.6702 30.9325L40.9034 28.3541C39.7791 27.1251 38.5014 26.1127 37.1151 25.3243L35.3188 29.0542C36.1843 29.5748 36.9749 30.2075 37.6702 30.9325Z" fill="white"/>
<path d="M40.265 35.2517L44.2979 34.3312C43.834 32.7751 43.1248 31.3029 42.19 29.9614L38.955 32.5412C39.5055 33.3747 39.9487 34.2847 40.265 35.2517Z" fill="white"/>
</g>
<defs>
<clipPath id="clip0_43_10">
<rect width="35" height="35" fill="white" transform="translate(12 12)"/>
</clipPath>
</defs>
</svg>
