<svg width="60" height="60" viewBox="0 0 60 60" fill="none" xmlns="http://www.w3.org/2000/svg">
<rect width="60" height="60" fill="white" fill-opacity="0.1"/>
<g clip-path="url(#clip0_43_12)">
<path d="M17.9678 14.112C18.2331 14.3813 19.1353 14.9381 21.3167 15.4329C23.565 15.943 26.4712 16.2239 29.5 16.2239C32.5288 16.2239 35.435 15.943 37.6833 15.4328C39.8646 14.938 40.7669 14.3813 41.0322 14.1119C40.7669 13.8425 39.8647 13.2858 37.6833 12.7909C35.435 12.2809 32.5288 12 29.5 12C26.4712 12 23.565 12.2809 21.3167 12.791C19.1353 13.2859 18.2331 13.8426 17.9678 14.112Z" fill="white"/>
<path d="M28.1877 32.3425H30.8248V39.3796H28.1877V32.3425Z" fill="white"/>
<path d="M23.1369 32.3425H25.8693V39.3796H23.1369V32.3425Z" fill="white"/>
<path d="M33.1431 32.3425H35.888V39.3796H33.1431V32.3425Z" fill="white"/>
<path d="M38.804 17.5526C36.3044 18.1944 33.0001 18.548 29.5 18.548C25.9999 18.548 22.6956 18.1944 20.196 17.5526C19.3065 17.3243 18.5407 17.0643 17.9081 16.7765V41.3853C17.9081 41.99 18.3159 42.5185 18.8996 42.6707C19.8343 42.9142 20.7763 43.1239 21.7234 43.3018V47H24.0418V43.6708C27.663 44.1435 31.3371 44.1434 34.9583 43.6708V47H37.2767V43.3017C38.2237 43.1238 39.1658 42.9142 40.1004 42.6707C40.6842 42.5185 41.092 41.99 41.092 41.3853V16.7765C40.4593 17.0643 39.6935 17.3243 38.804 17.5526ZM34.2063 23.4019C33.7231 22.9944 33.6541 22.2743 34.051 21.782L36.0683 19.2806L37.8711 20.7418L36.5687 22.3568L37.5102 23.1508C37.9458 23.6615 37.8871 24.3371 37.4907 24.7515L35.2093 27.1372L33.5358 25.5288L34.9611 24.0384L34.2063 23.4019ZM27.9015 25.122C27.4183 24.7146 27.3492 23.9943 27.7463 23.5021L29.7635 21.0007L31.5664 22.4619L30.2639 24.077L31.2067 24.872C31.6411 25.3834 31.5818 26.0577 31.186 26.4717L28.9046 28.8573L27.2311 27.2489L28.6563 25.7585L27.9015 25.122ZM21.5968 23.4019C21.1136 22.9944 21.0445 22.2742 21.4415 21.782L23.4588 19.2806L25.2617 20.7418L23.9592 22.3568L24.8993 23.1496C25.3368 23.6605 25.278 24.3368 24.8813 24.7516L22.5999 27.1372L20.9263 25.5288L22.3516 24.0384L21.5968 23.4019ZM38.2063 40.5417C38.2063 41.1835 37.6873 41.7038 37.0471 41.7038H21.9777C21.3375 41.7038 20.8185 41.1835 20.8185 40.5417V31.1804C20.8185 30.5386 21.3375 30.0183 21.9777 30.0183H37.0471C37.6873 30.0183 38.2063 30.5385 38.2063 31.1804V40.5417Z" fill="white"/>
</g>
<defs>
<clipPath id="clip0_43_12">
<rect width="35" height="35" fill="white" transform="translate(12 12)"/>
</clipPath>
</defs>
</svg>
