<svg width="57" height="57" viewBox="0 0 57 57" fill="none" xmlns="http://www.w3.org/2000/svg">
<circle cx="28.5" cy="28.5" r="27.5" stroke="white" stroke-width="2"/>
<path d="M44 30C44.5523 30 45 29.5523 45 29C45 28.4477 44.5523 28 44 28L44 30ZM13.2929 28.2929C12.9024 28.6834 12.9024 29.3166 13.2929 29.7071L19.6569 36.0711C20.0474 36.4616 20.6805 36.4616 21.0711 36.0711C21.4616 35.6805 21.4616 35.0474 21.0711 34.6569L15.4142 29L21.0711 23.3431C21.4616 22.9526 21.4616 22.3195 21.0711 21.9289C20.6805 21.5384 20.0474 21.5384 19.6569 21.9289L13.2929 28.2929ZM44 28L14 28L14 30L44 30L44 28Z" fill="white"/>
</svg>
