<svg width="43" height="43" viewBox="0 0 43 43" fill="none" xmlns="http://www.w3.org/2000/svg">
<path fill-rule="evenodd" clip-rule="evenodd" d="M14.46 0H20.0693V11.1916C20.0693 12.3364 19.6188 13.4243 18.8095 14.2338C18.0001 15.0431 16.9121 15.4936 15.7673 15.4936C14.6225 15.4936 13.5346 15.0431 12.7252 14.2338C11.9521 13.4607 11.5114 12.4434 11.4682 11.3519L14.46 0ZM32.8702 26.0568C33.3636 26.0568 33.7661 26.4593 33.7661 26.9527V43H38.4483C38.8324 43 39.1963 42.8494 39.4675 42.5784C39.7372 42.3088 39.8839 41.9462 39.8839 41.5654V18.258C39.484 18.3181 39.1036 18.3549 38.698 18.3549C36.7916 18.3549 34.9807 17.6045 33.6329 16.2567C33.3886 16.0125 33.1769 15.7607 32.9653 15.4891C32.7538 15.7608 32.542 16.0125 32.2977 16.2567C30.9499 17.6046 29.139 18.3549 27.2326 18.3549C25.3263 18.3549 23.5153 17.6045 22.1675 16.2567C21.9232 16.0125 21.7115 15.7607 21.4999 15.4891C21.2884 15.7608 21.0767 16.0125 20.8323 16.2567C19.4846 17.6046 17.6736 18.3549 15.7672 18.3549C13.8608 18.3549 12.0499 17.6046 10.7021 16.2567C10.4578 16.0125 10.2461 15.7607 10.0346 15.4891C9.823 15.7608 9.61127 16.0125 9.36696 16.2567C8.01918 17.6046 6.20822 18.3549 4.30186 18.3549C3.89639 18.3549 3.51585 18.3181 3.11609 18.258V41.5643C3.11609 41.946 3.26852 42.3084 3.53802 42.578C3.80761 42.8476 4.17001 42.9999 4.55172 42.9999H24.3576V26.9527C24.3576 26.4593 24.76 26.0568 25.2534 26.0568H32.8702ZM34.3455 10.8284L31.4917 0H36.9887L42.9886 11.5069C42.9062 12.547 42.4792 13.4946 41.7401 14.2338C40.9306 15.0431 39.8427 15.4936 38.6979 15.4936C37.5531 15.4936 36.4652 15.0431 35.6557 14.2338C34.8465 13.4244 34.3927 12.3368 34.3926 11.1916C34.3927 11.0691 34.3767 10.9469 34.3455 10.8284ZM30.2749 14.2338C29.4654 15.0431 28.3775 15.4936 27.2327 15.4936C26.0879 15.4936 25 15.0431 24.1905 14.2338C23.3812 13.4244 22.9307 12.3364 22.9307 11.1916V0H28.54L31.5317 11.3518C31.4885 12.4434 31.0479 13.4607 30.2749 14.2338ZM8.65452 10.8284L11.5083 0H6.01128L0.0113525 11.5069C0.0937412 12.547 0.520718 13.4946 1.25986 14.2338C2.06931 15.0431 3.15724 15.4936 4.30203 15.4936C5.44682 15.4936 6.53475 15.0431 7.3442 14.2338C8.15355 13.4244 8.60396 12.3364 8.60405 11.1916C8.60405 11.0691 8.62336 10.9468 8.65452 10.8284ZM9.36746 26.9527C9.36746 26.4593 9.76992 26.0568 10.2632 26.0568H15.4321C15.9256 26.0568 16.3279 26.4593 16.3279 26.9527V32.1216C16.3279 32.615 15.9255 33.0174 15.4321 33.0174H10.2632C9.76983 33.0174 9.36746 32.615 9.36746 32.1216V26.9527Z" fill="#DA251D"/>
</svg>
