<svg width="51" height="51" viewBox="0 0 51 51" fill="none" xmlns="http://www.w3.org/2000/svg">
<g clip-path="url(#clip0_19_6355)">
<path d="M22.3205 45.5724H22.2697C22.2244 45.0685 21.9922 44.5999 21.6187 44.2586C21.2452 43.9174 20.7575 43.7283 20.2516 43.7286H20.1998C20.1548 43.2246 19.9226 42.7557 19.5491 42.4142C19.1756 42.0728 18.6878 41.8836 18.1817 41.8839H18.1289C18.0925 41.5013 17.9481 41.1369 17.7125 40.8332C17.4769 40.5296 17.1598 40.2992 16.7982 40.1689C16.4367 40.0386 16.0455 40.0138 15.6704 40.0973C15.2952 40.1808 14.9516 40.3693 14.6795 40.6407L13.3049 42.0144C12.9254 42.3949 12.7123 42.9103 12.7123 43.4477C12.7123 43.9851 12.9254 44.5006 13.3049 44.8811C13.4925 45.0704 13.7158 45.2206 13.9618 45.3232C14.2078 45.4258 14.4717 45.4786 14.7382 45.4788H14.789C14.8366 45.9812 15.07 46.4478 15.4434 46.7873C15.8168 47.1268 16.3034 47.3148 16.8081 47.3146H16.8599C16.9012 47.7873 17.1079 48.2303 17.4436 48.5657C17.6311 48.755 17.8541 48.9053 18.1 49.0078C18.3459 49.1104 18.6096 49.1633 18.876 49.1633H18.9268C18.9633 49.5464 19.108 49.9112 19.3441 50.215C19.5802 50.5189 19.8979 50.7493 20.2601 50.8792C20.6223 51.0092 21.0141 51.0334 21.3895 50.949C21.7649 50.8645 22.1086 50.675 22.3803 50.4025L23.7539 49.0288C24.0374 48.7454 24.2304 48.3842 24.3087 47.9909C24.3869 47.5977 24.3467 47.1901 24.1933 46.8197C24.0399 46.4493 23.7801 46.1327 23.4467 45.91C23.1133 45.6873 22.7214 45.5684 22.3205 45.5684V45.5724Z" fill="#202329"/>
<path d="M34.4559 28.4344L28.4295 27.3028C27.8428 27.1934 27.2398 27.2061 26.6582 27.3399C26.0765 27.4737 25.5287 27.7259 25.0488 28.0807L19.1628 32.4486C18.8914 32.6498 18.6705 32.9115 18.5178 33.2129C18.3651 33.5143 18.2848 33.8472 18.2831 34.185C18.2815 34.5229 18.3586 34.8566 18.5084 35.1594C18.6581 35.4623 18.8764 35.7261 19.1459 35.93C19.6539 36.3112 20.2652 36.5301 20.8998 36.558C21.5343 36.5859 22.1625 36.4215 22.702 36.0863L25.5737 34.2854C25.9084 34.9508 26.5319 35.8553 27.6157 36.4131C28.8708 37.0575 30.3978 37.0745 32.1579 36.4619L37.5298 40.3307C37.6298 40.4027 37.7474 40.4463 37.8702 40.4568C37.993 40.4673 38.1163 40.4444 38.2271 40.3905L41.9236 38.5806L37.3704 27.0508L34.4559 28.4344Z" fill="#202329"/>
<path d="M50.9502 36.7764L45.3721 22.2016C45.3024 22.0197 45.1646 21.8723 44.9878 21.7906C44.8111 21.7089 44.6094 21.6995 44.4258 21.7643L42.4246 22.4785L45.384 30.6464C45.4175 30.7387 45.4325 30.8367 45.428 30.9348C45.4236 31.0328 45.3999 31.1291 45.3583 31.218C45.3167 31.3069 45.2579 31.3867 45.1854 31.4529C45.1129 31.519 45.0281 31.5703 44.9358 31.6037C44.8543 31.6331 44.7684 31.6482 44.6818 31.6485C44.5291 31.6474 44.3804 31.5996 44.2558 31.5114C44.1311 31.4233 44.0364 31.299 43.9845 31.1554L41.0192 22.9795L38.5488 23.861C38.4545 23.8949 38.3678 23.9474 38.2941 24.0153C38.2203 24.0833 38.161 24.1653 38.1196 24.2566C38.0781 24.348 38.0555 24.4467 38.0529 24.5469C38.0503 24.6471 38.0679 24.7469 38.1046 24.8402L43.9815 39.7208C44.0181 39.8141 44.073 39.8991 44.1432 39.9706C44.2133 40.0422 44.2971 40.0988 44.3896 40.1372C44.4822 40.1756 44.5815 40.195 44.6817 40.1941C44.7818 40.1933 44.8808 40.1722 44.9726 40.1322L50.5508 37.7287C50.7273 37.6521 50.8674 37.5103 50.9419 37.3328C51.0163 37.1554 51.0193 36.956 50.9502 36.7764Z" fill="#202329"/>
<path d="M12.8825 24.2571C12.8414 24.1653 12.7821 24.0827 12.7084 24.0142C12.6346 23.9457 12.5478 23.8928 12.4532 23.8587L9.98086 22.9801L7.01848 31.1571C6.96657 31.3006 6.87191 31.4249 6.74725 31.513C6.62258 31.6012 6.4739 31.649 6.32121 31.6501C6.2346 31.6499 6.14868 31.6347 6.06721 31.6053C5.9749 31.5719 5.89007 31.5207 5.81757 31.4545C5.74508 31.3883 5.68634 31.3085 5.64471 31.2196C5.60308 31.1307 5.57938 31.0344 5.57497 30.9364C5.57055 30.8383 5.5855 30.7403 5.61897 30.6481L8.57836 22.4801L6.57422 21.7649C6.39036 21.6995 6.18821 21.7086 6.01099 21.7903C5.83378 21.8721 5.69558 22.0199 5.62594 22.2022L0.0498081 36.777C-0.0193309 36.9565 -0.0164834 37.1557 0.0577561 37.3332C0.131996 37.5106 0.271891 37.6525 0.448246 37.7293L6.02637 40.1329C6.11826 40.1726 6.21719 40.1934 6.31728 40.1941C6.41738 40.1948 6.51659 40.1754 6.60904 40.137C6.70149 40.0987 6.78528 40.0421 6.85545 39.9707C6.92561 39.8993 6.98072 39.8146 7.01748 39.7215L12.8944 24.8408C12.9315 24.7477 12.9496 24.648 12.9475 24.5478C12.9454 24.4475 12.9233 24.3487 12.8825 24.2571Z" fill="#202329"/>
<path d="M37.9293 41.954C37.4723 41.9545 37.0269 41.8109 36.6563 41.5436L31.886 38.1071C31.1925 38.299 30.4769 38.3995 29.7573 38.4059C28.7763 38.4153 27.8074 38.1884 26.9324 37.7445C26.2479 37.3916 25.6388 36.9084 25.1394 36.3221L23.4959 37.3531C22.6996 37.8495 21.7717 38.0931 20.8343 38.0518C19.8969 38.0106 18.994 37.6864 18.2445 37.122C17.79 36.7781 17.422 36.3332 17.1694 35.8223C16.9169 35.3115 16.7868 34.7489 16.7895 34.179C16.7922 33.6092 16.9276 33.0478 17.185 32.5394C17.4424 32.031 17.8147 31.5895 18.2724 31.25L22.5386 28.0834L22.3723 27.9639C21.7844 27.5429 21.1083 27.2613 20.3953 27.1405C19.6823 27.0197 18.9512 27.0628 18.2574 27.2666L15.7313 28.0187L13.7212 26.8174L8.89215 39.0395L12.2619 40.939L13.6226 39.5783C14.2834 38.9185 15.179 38.5479 16.1128 38.5479C17.0467 38.5479 17.9423 38.9185 18.6031 39.5783C18.8913 39.8676 19.1272 40.2046 19.3003 40.5744C19.7515 40.7267 20.1674 40.9684 20.5229 41.2853C20.8784 41.6021 21.1662 41.9874 21.3692 42.4182C21.8207 42.5702 22.2367 42.8119 22.5924 43.1287C22.9481 43.4456 23.2361 43.831 23.4391 44.262C24.008 44.4525 24.5188 44.7851 24.9231 45.2283C25.3274 45.6716 25.6118 46.2108 25.7492 46.7947C25.8867 47.3787 25.8728 47.9881 25.7087 48.5652C25.5446 49.1422 25.2359 49.6678 24.8117 50.0921L24.7928 50.112L25.0827 50.3292C25.5916 50.7085 26.2204 50.8912 26.8533 50.8436C27.4862 50.796 28.0807 50.5213 28.5272 50.0702L28.6118 49.9845C28.989 49.5996 29.2392 49.1084 29.329 48.5771C29.7784 48.704 30.2536 48.7089 30.7056 48.5915C31.1576 48.474 31.5701 48.2383 31.9009 47.9087L31.9627 47.8469C32.3818 47.4286 32.6466 46.8804 32.7137 46.292C33.1666 46.4269 33.6476 46.4366 34.1056 46.32C34.5636 46.2033 34.9813 45.9647 35.3145 45.6296L35.3564 45.5878C35.7626 45.181 36.0243 44.6523 36.1014 44.0827C36.4882 44.1748 36.8908 44.178 37.2789 44.0918C37.667 44.0057 38.0305 43.8326 38.342 43.5855C38.6535 43.3384 38.9047 43.0238 39.0769 42.6654C39.249 42.3071 39.3375 41.9143 39.3358 41.5167L38.8875 41.7359C38.5888 41.8804 38.2611 41.955 37.9293 41.954Z" fill="#202329"/>
<path d="M40.535 11.7041C40.535 11.8022 40.5544 11.8994 40.5919 11.99C40.6294 12.0806 40.6845 12.163 40.7538 12.2324C40.8232 12.3017 40.9056 12.3568 40.9962 12.3943C41.0869 12.4318 41.184 12.4512 41.2821 12.4512H45.4219C45.62 12.4512 45.81 12.3725 45.9501 12.2324C46.0902 12.0923 46.1689 11.9022 46.1689 11.7041C46.1689 11.506 46.0902 11.3159 45.9501 11.1758C45.81 11.0357 45.62 10.957 45.4219 10.957H41.2821C41.084 10.957 40.8939 11.0357 40.7538 11.1758C40.6137 11.3159 40.535 11.506 40.535 11.7041Z" fill="#202329"/>
<path d="M39.7302 8.29819C39.863 8.29922 39.9936 8.26484 40.1087 8.19858L43.2125 6.37474C43.3842 6.27448 43.5091 6.11012 43.5596 5.9178C43.6102 5.72549 43.5822 5.52098 43.482 5.34926C43.3817 5.17754 43.2174 5.05268 43.025 5.00215C42.8327 4.95162 42.6282 4.97956 42.4565 5.07982L39.3517 6.90665C39.2086 6.98898 39.0969 7.11636 39.0339 7.2689C38.9708 7.42144 38.9601 7.59055 39.0034 7.74983C39.0466 7.90911 39.1413 8.04959 39.2728 8.14934C39.4043 8.24908 39.5651 8.30247 39.7302 8.30118V8.29819Z" fill="#202329"/>
<path d="M39.3517 16.5015L42.4565 18.3284C42.5415 18.378 42.6355 18.4104 42.7331 18.4237C42.8306 18.4371 42.9298 18.431 43.0251 18.406C43.1203 18.381 43.2096 18.3375 43.288 18.2779C43.3664 18.2184 43.4323 18.1439 43.482 18.0589C43.5316 17.9739 43.564 17.8799 43.5774 17.7824C43.5907 17.6848 43.5847 17.5856 43.5596 17.4904C43.5346 17.3951 43.4911 17.3058 43.4315 17.2274C43.372 17.149 43.2976 17.0831 43.2125 17.0334L40.1087 15.2106C40.0241 15.159 39.93 15.1248 39.8321 15.11C39.7341 15.0951 39.6342 15.0999 39.5381 15.1241C39.442 15.1482 39.3516 15.1913 39.2723 15.2507C39.193 15.3101 39.1263 15.3846 39.0761 15.4701C39.0259 15.5555 38.9931 15.6501 38.9798 15.7483C38.9665 15.8464 38.9729 15.9463 38.9985 16.042C39.0242 16.1377 39.0686 16.2274 39.1292 16.3058C39.1899 16.3841 39.2655 16.4497 39.3517 16.4985V16.5015Z" fill="#202329"/>
<path d="M5.57812 12.4512H9.71789C9.91603 12.4512 10.106 12.3725 10.2461 12.2324C10.3863 12.0923 10.465 11.9022 10.465 11.7041C10.465 11.506 10.3863 11.3159 10.2461 11.1758C10.106 11.0357 9.91603 10.957 9.71789 10.957H5.57812C5.37999 10.957 5.18997 11.0357 5.04987 11.1758C4.90976 11.3159 4.83105 11.506 4.83105 11.7041C4.83105 11.9022 4.90976 12.0923 5.04987 12.2324C5.18997 12.3725 5.37999 12.4512 5.57812 12.4512Z" fill="#202329"/>
<path d="M7.78749 6.37474L10.8913 8.19759C10.9759 8.24913 11.07 8.28332 11.168 8.29817C11.2659 8.31302 11.3659 8.30823 11.462 8.28408C11.5581 8.25993 11.6484 8.21691 11.7277 8.15751C11.807 8.09811 11.8738 8.02352 11.924 7.9381C11.9742 7.85267 12.0069 7.75811 12.0202 7.65992C12.0335 7.56173 12.0272 7.46187 12.0015 7.36615C11.9759 7.27044 11.9314 7.18079 11.8708 7.10241C11.8102 7.02404 11.7346 6.95851 11.6484 6.90964L8.54353 5.07981C8.4585 5.03017 8.36453 4.99776 8.26698 4.98444C8.16943 4.97111 8.07021 4.97713 7.97498 5.00215C7.78267 5.05268 7.6183 5.17754 7.51805 5.34926C7.41779 5.52097 7.38986 5.72548 7.44039 5.9178C7.49092 6.11011 7.61577 6.27448 7.78749 6.37474Z" fill="#202329"/>
<path d="M10.8913 15.2135L7.78749 17.0333C7.61577 17.1336 7.49092 17.2979 7.44039 17.4903C7.38986 17.6826 7.41779 17.8871 7.51805 18.0588C7.6183 18.2305 7.78267 18.3554 7.97498 18.4059C8.1673 18.4564 8.37181 18.4285 8.54353 18.3282L11.6484 16.5044C11.7346 16.4555 11.8102 16.39 11.8708 16.3116C11.9314 16.2332 11.9759 16.1436 12.0015 16.0479C12.0272 15.9522 12.0335 15.8523 12.0202 15.7541C12.0069 15.6559 11.9742 15.5614 11.924 15.4759C11.8738 15.3905 11.807 15.3159 11.7277 15.2565C11.6484 15.1971 11.5581 15.1541 11.462 15.1299C11.3659 15.1058 11.2659 15.101 11.168 15.1159C11.07 15.1307 10.9759 15.1649 10.8913 15.2164V15.2135Z" fill="#202329"/>
<path d="M25.5 18.9258C26.9283 18.9258 28.3246 18.5022 29.5121 17.7087C30.6997 16.9152 31.6254 15.7873 32.172 14.4677C32.7186 13.1481 32.8616 11.6961 32.5829 10.2952C32.3043 8.89436 31.6165 7.60758 30.6065 6.59761C29.5965 5.58764 28.3097 4.89984 26.9089 4.62119C25.508 4.34254 24.056 4.48555 22.7364 5.03214C21.4168 5.57873 20.2889 6.50436 19.4954 7.69196C18.7019 8.87955 18.2783 10.2758 18.2783 11.7041C18.2804 13.6188 19.042 15.4544 20.3958 16.8083C21.7497 18.1621 23.5853 18.9237 25.5 18.9258ZM21.0056 10.8395C21.1504 10.7042 21.343 10.632 21.541 10.6388C21.739 10.6455 21.9262 10.7306 22.0615 10.8754L24.3704 13.3477L28.9385 8.45385C29.0738 8.30855 29.2612 8.22294 29.4596 8.21584C29.658 8.20874 29.8511 8.28074 29.9964 8.416C30.1417 8.55126 30.2273 8.7387 30.2344 8.93709C30.2415 9.13547 30.1695 9.32855 30.0342 9.47385L24.9203 14.9524C24.8503 15.0277 24.7655 15.0877 24.6712 15.1288C24.577 15.1699 24.4752 15.1911 24.3724 15.1911C24.2696 15.1911 24.1679 15.1699 24.0736 15.1288C23.9794 15.0877 23.8946 15.0277 23.8246 14.9524L20.9708 11.8944C20.9038 11.8228 20.8515 11.7388 20.817 11.647C20.7825 11.5553 20.7664 11.4577 20.7696 11.3597C20.7729 11.2617 20.7954 11.1654 20.8359 11.0761C20.8764 10.9869 20.934 10.9065 21.0056 10.8395Z" fill="#202329"/>
<path d="M25.5 23.4082C27.8149 23.4082 30.0777 22.7218 32.0025 21.4357C33.9272 20.1496 35.4273 18.3217 36.3132 16.1831C37.199 14.0444 37.4308 11.6911 36.9792 9.42075C36.5276 7.15038 35.4129 5.06491 33.7761 3.42806C32.1392 1.79121 30.0537 0.676502 27.7834 0.224896C25.513 -0.226709 23.1597 0.00507121 21.021 0.890927C18.8824 1.77678 17.0545 3.27693 15.7684 5.20166C14.4823 7.12639 13.7959 9.38925 13.7959 11.7041C13.7993 14.8072 15.0335 17.7822 17.2277 19.9764C19.4219 22.1706 22.3969 23.4048 25.5 23.4082ZM25.5 2.98829C27.2238 2.98829 28.9089 3.49946 30.3423 4.45717C31.7756 5.41487 32.8927 6.7761 33.5524 8.36871C34.212 9.96132 34.3847 11.7138 34.0483 13.4045C33.712 15.0952 32.8819 16.6482 31.663 17.8671C30.4441 19.0861 28.8911 19.9162 27.2004 20.2525C25.5097 20.5888 23.7572 20.4162 22.1646 19.7565C20.572 19.0968 19.2108 17.9797 18.2531 16.5464C17.2954 15.113 16.7842 13.4279 16.7842 11.7041C16.7868 9.39334 17.7059 7.17797 19.3399 5.544C20.9739 3.91004 23.1892 2.99092 25.5 2.98829Z" fill="#202329"/>
</g>
<defs>
<clipPath id="clip0_19_6355">
<rect width="51" height="51" fill="white"/>
</clipPath>
</defs>
</svg>
