<svg width="96" height="96" viewBox="0 0 96 96" fill="none" xmlns="http://www.w3.org/2000/svg">
<rect width="96" height="96" fill="white"/>
<path d="M35.5938 53.4375H31.9062C30.9283 53.4375 29.9903 53.8194 29.2988 54.4992C28.6073 55.1791 28.2188 56.1011 28.2188 57.0625V71.5625C28.2188 72.0432 28.413 72.5042 28.7588 72.8441C29.1045 73.184 29.5735 73.375 30.0625 73.375H37.4375C37.9265 73.375 38.3955 73.184 38.7412 72.8441C39.087 72.5042 39.2812 72.0432 39.2812 71.5625V57.0625C39.2812 56.1011 38.8927 55.1791 38.2012 54.4992C37.5097 53.8194 36.5717 53.4375 35.5938 53.4375ZM35.5938 69.75H31.9062V57.0625H35.5938V69.75Z" fill="#202329"/>
<path d="M50.3438 48H46.6562C45.6783 48 44.7403 48.3819 44.0488 49.0617C43.3573 49.7416 42.9688 50.6636 42.9688 51.625V71.5625C42.9688 72.0432 43.163 72.5042 43.5088 72.8441C43.8545 73.184 44.3235 73.375 44.8125 73.375H52.1875C52.6765 73.375 53.1455 73.184 53.4912 72.8441C53.837 72.5042 54.0312 72.0432 54.0312 71.5625V51.625C54.0312 50.6636 53.6427 49.7416 52.9512 49.0617C52.2597 48.3819 51.3217 48 50.3438 48Z" fill="#202329"/>
<path d="M65.0938 42.5625H61.4062C60.4283 42.5625 59.4903 42.9444 58.7988 43.6242C58.1073 44.3041 57.7188 45.2261 57.7188 46.1875V71.5625C57.7188 72.0432 57.913 72.5042 58.2588 72.8441C58.6045 73.184 59.0735 73.375 59.5625 73.375H66.9375C67.4265 73.375 67.8955 73.184 68.2412 72.8441C68.587 72.5042 68.7812 72.0432 68.7812 71.5625V46.1875C68.7812 45.2261 68.3927 44.3041 67.7012 43.6242C67.0097 42.9444 66.0717 42.5625 65.0938 42.5625Z" fill="#202329"/>
<path d="M54.9531 23.1325C54.6728 22.9734 54.3549 22.8896 54.0312 22.8896C53.7076 22.8896 53.3897 22.9734 53.1094 23.1325L42.0469 29.44C41.7675 29.5993 41.5355 29.828 41.3743 30.1031C41.2131 30.3783 41.1283 30.6903 41.1283 31.0078C41.1283 31.3253 41.2131 31.6373 41.3743 31.9124C41.5355 32.1876 41.7675 32.4163 42.0469 32.5756L43.4297 33.3731C42.0449 36.3643 40.0609 39.0503 37.5963 41.2708C35.1317 43.4912 32.237 45.2004 29.0853 46.2962C28.6829 46.4388 28.3434 46.7145 28.125 47.0761C27.9066 47.4378 27.823 47.8628 27.8884 48.2783C27.9537 48.6939 28.1641 49.0743 28.4834 49.3541C28.8026 49.634 29.211 49.796 29.6384 49.8125H29.7491C34.0415 49.5716 38.2235 48.3824 41.9838 46.3333C45.7442 44.2841 48.9861 41.4278 51.4684 37.9769L53.1094 38.9012C53.3897 39.0603 53.7076 39.1441 54.0312 39.1441C54.3549 39.1441 54.6728 39.0603 54.9531 38.9012C55.2345 38.7415 55.4679 38.5116 55.6298 38.2347C55.7917 37.9578 55.8763 37.6437 55.875 37.3244V24.6369C55.8636 24.3298 55.773 24.0307 55.6118 23.7676C55.4505 23.5044 55.2239 23.2859 54.9531 23.1325Z" fill="#202329"/>
</svg>
