<svg width="18" height="27" viewBox="0 0 18 27" fill="none" xmlns="http://www.w3.org/2000/svg">
<path d="M8.83562 0C3.9634 0 0 3.9634 0 8.83562C0 15.0228 8.0532 25.5043 8.82299 26.7837C10.1562 24.738 17.6712 14.736 17.6712 8.83562C17.6712 3.9634 13.7078 0 8.83562 0ZM8.83562 12.6223C6.74789 12.6223 5.04892 10.9233 5.04892 8.83562C5.04892 6.74789 6.74789 5.04892 8.83562 5.04892C10.9233 5.04892 12.6223 6.74789 12.6223 8.83562C12.6223 10.9233 10.9233 12.6223 8.83562 12.6223ZM8.83562 7.57339C8.13971 7.57339 7.57339 8.13971 7.57339 8.83562C7.57339 9.53153 8.13971 10.0978 8.83562 10.0978C9.53153 10.0978 10.0978 9.53153 10.0978 8.83562C10.0978 8.13971 9.53153 7.57339 8.83562 7.57339Z" fill="#202329"/>
</svg>
