<svg width="32" height="34" viewBox="0 0 32 34" fill="none" xmlns="http://www.w3.org/2000/svg">
<path d="M24.3285 22.3301C23.2831 21.2657 21.9779 21.2657 20.9392 22.3301C20.1467 23.1404 19.3543 23.9507 18.5752 24.7748C18.3622 25.0014 18.1824 25.0494 17.9227 24.8984C17.4099 24.61 16.8639 24.3765 16.3712 24.0606C14.0738 22.5705 12.1494 20.6546 10.4447 18.4983C9.59905 17.4271 8.8466 16.2803 8.32054 14.9893C8.214 14.7284 8.23398 14.5567 8.4404 14.3438C9.23281 13.5541 10.0052 12.7438 10.7843 11.9335C11.8697 10.8073 11.8697 9.48885 10.7777 8.35579C10.1584 7.7103 9.53912 7.07853 8.91984 6.43304C8.28059 5.77381 7.64799 5.10771 7.00208 4.45534C5.95663 3.40469 4.65149 3.40469 3.6127 4.46221C2.81364 5.27252 2.04786 6.10342 1.23548 6.89999C0.483021 7.63476 0.103463 8.53434 0.0235567 9.58498C-0.102962 11.2949 0.30323 12.9086 0.875896 14.4811C2.04786 17.7361 3.83245 20.6271 5.99659 23.2778C8.91984 26.8623 12.4091 29.6984 16.491 31.7448C18.3289 32.6649 20.2333 33.3722 22.3042 33.489C23.7292 33.5714 24.9678 33.2006 25.96 32.0538C26.6392 31.2709 27.4049 30.5568 28.1241 29.8083C29.1895 28.6958 29.1962 27.3499 28.1374 26.2512C26.8722 24.9396 25.6004 23.6348 24.3285 22.3301Z" fill="white"/>
<path d="M23.0567 16.8571L25.5138 16.4245C25.1276 14.0966 24.0622 11.9884 22.4441 10.3129C20.7327 8.54809 18.5686 7.43563 16.1847 7.09229L15.8384 9.63994C17.683 9.90775 19.361 10.7661 20.6861 12.1327C21.938 13.4236 22.757 15.058 23.0567 16.8571Z" fill="white"/>
<path d="M26.8989 5.84252C24.0622 2.91718 20.473 1.06996 16.511 0.5L16.1647 3.04765C19.5874 3.54208 22.6905 5.14208 25.1409 7.66227C27.4649 10.0588 28.9898 13.0872 29.5425 16.4177L31.9996 15.9851C31.3537 12.1258 29.5891 8.62365 26.8989 5.84252Z" fill="white"/>
</svg>
