<svg width="36" height="36" viewBox="0 0 36 36" fill="none" xmlns="http://www.w3.org/2000/svg">
<g clip-path="url(#clip0_19_6319)">
<path d="M17.1664 0.919922V10.6509H21.5947V35.0791H35.5V3.76652L17.1664 0.919922ZM27.1062 28.4122H24.9165V10.7005H27.1062V28.4122ZM32.106 31.4296H29.9163V10.7005H32.106V31.4296Z" fill="white"/>
<path d="M3.89548 22.9623V25.152H6.07203V28.0716H3.89548V30.2612H6.07203V35.0786H0.5V18.4121H6.07203V22.9623H3.89548Z" fill="white"/>
<path d="M8.26172 12.8398V35.0783H19.405V12.8398H8.26172ZM15.5001 29.5063H12.1667V27.3166H15.5001V29.5063ZM15.5001 24.5065H12.1667V22.3168H15.5001V24.5065ZM15.5001 19.5067H12.1667V17.317H15.5001V19.5067Z" fill="white"/>
</g>
<defs>
<clipPath id="clip0_19_6319">
<rect width="35" height="35" fill="white" transform="translate(0.5 0.5)"/>
</clipPath>
</defs>
</svg>
