<svg width="13" height="13" viewBox="0 0 13 13" fill="none" xmlns="http://www.w3.org/2000/svg">
<path d="M12.4585 5.95929C12.3148 5.95929 12.1771 5.90222 12.0755 5.80063C11.9739 5.69905 11.9168 5.56128 11.9168 5.41762C11.9157 4.2687 11.4588 3.16717 10.6464 2.35476C9.83395 1.54235 8.73241 1.08543 7.58349 1.08429C7.43983 1.08429 7.30206 1.02722 7.20048 0.925636C7.09889 0.824054 7.04183 0.686279 7.04183 0.54262C7.04183 0.398961 7.09889 0.261186 7.20048 0.159604C7.30206 0.0580214 7.43983 0.000953152 7.58349 0.000953152C9.0196 0.00253027 10.3964 0.57372 11.4119 1.5892C12.4274 2.60468 12.9986 3.98151 13.0002 5.41762C13.0002 5.56128 12.9431 5.69905 12.8415 5.80063C12.7399 5.90222 12.6022 5.95929 12.4585 5.95929ZM10.8335 5.41762C10.8335 4.55567 10.4911 3.72902 9.88159 3.11952C9.2721 2.51003 8.44545 2.16762 7.58349 2.16762C7.43983 2.16762 7.30206 2.22469 7.20048 2.32627C7.09889 2.42785 7.04183 2.56563 7.04183 2.70929C7.04183 2.85294 7.09889 2.99072 7.20048 3.0923C7.30206 3.19388 7.43983 3.25095 7.58349 3.25095C8.15813 3.25095 8.70923 3.47923 9.11556 3.88555C9.52189 4.29188 9.75016 4.84298 9.75016 5.41762C9.75016 5.56128 9.80723 5.69905 9.90881 5.80063C10.0104 5.90222 10.1482 5.95929 10.2918 5.95929C10.4355 5.95929 10.5733 5.90222 10.6748 5.80063C10.7764 5.69905 10.8335 5.56128 10.8335 5.41762ZM12.016 12.0065L12.5089 11.4382C12.8226 11.1235 12.9988 10.6972 12.9988 10.2528C12.9988 9.8084 12.8226 9.38212 12.5089 9.06737C12.4921 9.05058 11.1888 8.04795 11.1888 8.04795C10.876 7.75021 10.4606 7.58443 10.0287 7.58503C9.5969 7.58564 9.1819 7.75259 8.86995 8.0512L7.83753 8.92112C6.9948 8.57234 6.22926 8.06051 5.5849 7.41502C4.94053 6.76954 4.43003 6.00312 4.0827 5.15979L4.94937 4.13062C5.24821 3.81871 5.41536 3.40364 5.41607 2.97167C5.41677 2.53971 5.25098 2.12408 4.95316 1.8112C4.95316 1.8112 3.94945 0.509578 3.93266 0.492786C3.62361 0.181733 3.2046 0.00475674 2.76614 9.4493e-05C2.32769 -0.00456776 1.905 0.163459 1.58941 0.46787L0.966493 1.00954C-2.71359 5.27895 5.21099 13.1423 9.62124 13.001C10.0666 13.0035 10.5079 12.9169 10.9192 12.7461C11.3305 12.5752 11.7034 12.3238 12.016 12.0065Z" fill="#202329"/>
</svg>
