<svg width="32" height="26" viewBox="0 0 32 26" fill="none" xmlns="http://www.w3.org/2000/svg">
<path d="M31.747 9.35953C31.5742 9.04762 31.3209 8.78783 31.0134 8.60731C30.7059 8.42678 30.3556 8.33213 29.999 8.33326H11.0482C10.4093 8.33324 9.78757 8.54045 9.27642 8.9238C8.76527 9.30715 8.39224 9.84595 8.21334 10.4593L4.46234 23.3199C4.26487 23.9969 3.85314 24.5916 3.28895 25.0148C2.72477 25.4379 2.03857 25.6666 1.33334 25.6666H25.1652C25.8706 25.6666 26.5569 25.4378 27.1212 25.0146C27.6855 24.5914 28.0973 23.9965 28.2948 23.3194L31.8957 10.9739C31.9795 10.7084 32.0095 10.4289 31.984 10.1517C31.9584 9.87453 31.8779 9.60521 31.747 9.35953Z" fill="white"/>
<path d="M3.18 22.9466L6.93333 10.0866C7.19481 9.19755 7.73651 8.41678 8.47771 7.86057C9.21892 7.30437 10.12 7.00249 11.0467 6.99992H28V6.33325C28 5.62601 27.719 4.94773 27.219 4.44763C26.7189 3.94754 26.0406 3.66659 25.3333 3.66659H15.1705C14.9718 3.66658 14.7756 3.6223 14.5962 3.53697C14.4168 3.45163 14.2587 3.32738 14.1333 3.17325L12.8229 1.56185C12.5107 1.17802 12.1169 0.86859 11.6701 0.656064C11.2233 0.443539 10.7348 0.333262 10.24 0.333252H2.66667C1.95942 0.333252 1.28115 0.614203 0.781049 1.1143C0.280952 1.6144 0 2.29267 0 2.99992L0 22.9999C0 23.3535 0.140476 23.6927 0.390524 23.9427C0.640573 24.1928 0.979711 24.3333 1.33333 24.3333C1.7495 24.3321 2.15416 24.1965 2.48695 23.9466C2.81974 23.6967 3.06284 23.3459 3.18 22.9466Z" fill="white"/>
</svg>
