<svg width="26" height="26" viewBox="0 0 26 26" fill="none" xmlns="http://www.w3.org/2000/svg">
<rect width="26" height="26" fill="#E5803B"/>
<g clip-path="url(#clip0_13_19)">
<path d="M16.6438 15.5997C16.1864 15.1804 15.6154 15.1804 15.1609 15.5997C14.8142 15.9189 14.4675 16.2381 14.1267 16.5627C14.0335 16.652 13.9548 16.671 13.8412 16.6114C13.6169 16.4978 13.378 16.4058 13.1624 16.2814C12.1573 15.6944 11.3154 14.9396 10.5696 14.0902C10.1996 13.6682 9.87041 13.2164 9.64026 12.7079C9.59365 12.6051 9.60239 12.5374 9.6927 12.4536C10.0394 12.1425 10.3773 11.8233 10.7182 11.5041C11.193 11.0604 11.193 10.541 10.7153 10.0947C10.4443 9.84038 10.1734 9.59151 9.90245 9.33722C9.62278 9.07752 9.34602 8.81512 9.06343 8.55813C8.60605 8.14424 8.03505 8.14424 7.58058 8.56083C7.23099 8.88004 6.89596 9.20737 6.54054 9.52117C6.21134 9.81063 6.04529 10.165 6.01033 10.5789C5.95498 11.2525 6.13269 11.8882 6.38323 12.5077C6.89596 13.7899 7.67672 14.9288 8.62353 15.973C9.90246 17.3851 11.429 18.5024 13.2148 19.3085C14.0189 19.671 14.8521 19.9496 15.7581 19.9956C16.3816 20.0281 16.9234 19.882 17.3575 19.4302C17.6547 19.1218 17.9897 18.8405 18.3043 18.5456C18.7704 18.1074 18.7734 17.5772 18.3101 17.1444C17.7566 16.6277 17.2002 16.1137 16.6438 15.5997Z" fill="white"/>
<path d="M16.0873 13.4437L17.1623 13.2733C16.9933 12.3562 16.5272 11.5257 15.8193 10.8657C15.0706 10.1704 14.1238 9.73218 13.0808 9.59692L12.9293 10.6005C13.7363 10.706 14.4704 11.0442 15.0502 11.5825C15.5979 12.0911 15.9562 12.7349 16.0873 13.4437Z" fill="white"/>
<path d="M17.7683 9.10463C16.5272 7.95222 14.957 7.22453 13.2236 7L13.0721 8.00362C14.5695 8.19839 15.9271 8.8287 16.9992 9.8215C18.0159 10.7656 18.683 11.9586 18.9248 13.2706L19.9998 13.1002C19.7172 11.5799 18.9452 10.2002 17.7683 9.10463Z" fill="white"/>
</g>
<defs>
<clipPath id="clip0_13_19">
<rect width="14" height="13" fill="white" transform="translate(6 7)"/>
</clipPath>
</defs>
</svg>
