<svg width="31" height="30" viewBox="0 0 31 30" fill="none" xmlns="http://www.w3.org/2000/svg">
<g clip-path="url(#clip0_57_939)">
<path d="M23.1172 17.6953C21.1787 17.6953 19.6016 16.1182 19.6016 14.1797C19.6016 12.2412 21.1787 10.6641 23.1172 10.6641C25.0557 10.6641 26.6328 12.2412 26.6328 14.1797C26.6328 16.1182 25.0557 17.6953 23.1172 17.6953Z" fill="white"/>
<path d="M29.6211 30H1.37891C0.893516 30 0.5 29.6065 0.5 29.1211V27.3633C0.5 26.8779 0.893516 26.4844 1.37891 26.4844H29.6211C30.1065 26.4844 30.5 26.8779 30.5 27.3633V29.1211C30.5 29.6065 30.1065 30 29.6211 30Z" fill="white"/>
<path d="M26.1459 18.4941C25.2883 19.098 24.2435 19.4531 23.1172 19.4531C21.9909 19.4531 20.9461 19.098 20.0885 18.4941C19.3197 18.9308 18.654 19.5285 18.1367 20.2406V22.0898C18.1367 23.0021 17.671 23.8074 16.9648 24.281V24.7266H29.2695V23.8477C29.2695 21.5556 28.0095 19.5526 26.1459 18.4941Z" fill="white"/>
<path d="M15.5 12.4219H1.4375C0.952109 12.4219 0.558594 12.8154 0.558594 13.3008V22.0898C0.558594 22.5752 0.952109 22.9688 1.4375 22.9688H5.49148L4.90555 24.7266H12.0319L11.446 22.9688H15.5C15.9854 22.9688 16.3789 22.5752 16.3789 22.0898V13.3008C16.3789 12.8154 15.9854 12.4219 15.5 12.4219Z" fill="white"/>
<path d="M20.1875 0H7.29688C6.16607 0 5.24609 0.91998 5.24609 2.05078V6.73828C5.24609 7.86908 6.16607 8.78906 7.29688 8.78906H14.6479L17.9422 10.9852C18.0893 11.0832 18.2592 11.1328 18.4297 11.1328C18.572 11.1328 18.7145 11.0984 18.8444 11.0288C19.1302 10.8759 19.3086 10.578 19.3086 10.2539V8.78906H20.1875C21.3183 8.78906 22.2383 7.86908 22.2383 6.73828V2.05078C22.2383 0.91998 21.3183 0 20.1875 0ZM17.8438 5.27344H9.64062C9.15523 5.27344 8.76172 4.87992 8.76172 4.39453C8.76172 3.90914 9.15523 3.51562 9.64062 3.51562H17.8438C18.3291 3.51562 18.7227 3.90914 18.7227 4.39453C18.7227 4.87992 18.3291 5.27344 17.8438 5.27344Z" fill="white"/>
</g>
<defs>
<clipPath id="clip0_57_939">
<rect width="30" height="30" fill="white" transform="translate(0.5)"/>
</clipPath>
</defs>
</svg>
