<svg width="28" height="28" viewBox="0 0 28 28" fill="none" xmlns="http://www.w3.org/2000/svg">
<path fill-rule="evenodd" clip-rule="evenodd" d="M1.33384 0.0306117C0.829815 0.163123 0.387265 0.526365 0.156902 0.996482C-0.0334423 1.38487 -0.0354131 2.07925 0.152687 2.47553C0.257467 2.69629 1.37183 3.84101 5.89883 8.37801L11.515 14.0066L5.89883 19.6352C-0.204243 25.7517 0.0619216 25.4576 0.00586381 26.1478C-0.049975 26.836 0.295788 27.4611 0.923263 27.8065C1.25452 27.9889 1.31123 28.0022 1.74442 27.9998C2.11487 27.9977 2.26558 27.9709 2.48346 27.8685C2.70556 27.7641 3.81834 26.6797 8.38212 22.1201L14.0071 16.5003L19.632 22.1201C24.1958 26.6797 25.3086 27.7641 25.5307 27.8685C25.7493 27.9713 25.898 27.9975 26.2697 27.9989C26.6964 28.0005 26.7637 27.9852 27.08 27.8146C27.4642 27.6073 27.63 27.4354 27.8444 27.0226C28.0455 26.6354 28.0527 25.9482 27.86 25.5377C27.7557 25.3154 26.672 24.2019 22.1153 19.6352L16.4992 14.0066L22.1153 8.37801C26.672 3.81127 27.7557 2.69777 27.86 2.47553C27.9627 2.25679 27.9889 2.1079 27.9903 1.736C27.9919 1.30905 27.9766 1.24167 27.8061 0.925214C27.5989 0.540772 27.4272 0.374791 27.0146 0.160275C26.6277 -0.0409302 25.9409 -0.0481611 25.5307 0.144662C25.3086 0.249072 24.1958 1.33349 19.632 5.8931L14.0071 11.5129L8.38212 5.8931C3.79617 1.31135 2.70775 0.25088 2.48965 0.151784C2.20022 0.0202584 1.60882 -0.0416971 1.33384 0.0306117Z" fill="#202329"/>
</svg>
