<svg width="25" height="25" viewBox="0 0 25 25" fill="none" xmlns="http://www.w3.org/2000/svg">
<path d="M2.72339 24.5327C2.10037 25.1558 1.09026 25.1558 0.467265 24.5327C-0.155755 23.9097 -0.155755 22.8995 0.467265 22.2766L10.2439 12.5L0.467265 2.72339C-0.155755 2.10037 -0.155755 1.09026 0.467265 0.467265C1.09026 -0.155755 2.10037 -0.155755 2.72339 0.467265L12.5 10.2439L22.2766 0.467265C22.8995 -0.155755 23.9097 -0.155755 24.5327 0.467265C25.1558 1.09026 25.1558 2.10037 24.5327 2.72339L14.756 12.5L24.5327 22.2766C25.1558 22.8995 25.1558 23.9097 24.5327 24.5327C23.9097 25.1558 22.8995 25.1558 22.2766 24.5327L12.5 14.756L2.72339 24.5327Z" fill="white"/>
</svg>
