<svg width="57" height="57" viewBox="0 0 57 57" fill="none" xmlns="http://www.w3.org/2000/svg">
<path d="M56.3035 52.9454L40.0943 36.7361C43.2341 32.8578 45.1245 27.9297 45.1245 22.5623C45.1245 10.1222 35.0023 0 22.5622 0C10.1221 0 0 10.1221 0 22.5622C0 35.0023 10.1222 45.1245 22.5623 45.1245C27.9297 45.1245 32.8578 43.2341 36.7361 40.0943L52.9454 56.3035C53.4085 56.7667 54.0164 56.9994 54.6245 56.9994C55.2326 56.9994 55.8405 56.7667 56.3036 56.3035C57.2322 55.375 57.2322 53.8739 56.3035 52.9454ZM22.5623 40.3745C12.7394 40.3745 4.74999 32.3851 4.74999 22.5622C4.74999 12.7393 12.7394 4.74988 22.5623 4.74988C32.3853 4.74988 40.3746 12.7393 40.3746 22.5622C40.3746 32.3851 32.3851 40.3745 22.5623 40.3745Z" fill="white"/>
</svg>
