<svg width="31" height="36" viewBox="0 0 31 36" fill="none" xmlns="http://www.w3.org/2000/svg">
<path d="M23.8411 3.74316H3.37434C2.71547 3.75838 2.08864 4.03052 1.62765 4.50152C1.16666 4.97251 0.90804 5.60504 0.906982 6.26409V32.9796C0.907899 33.6479 1.17379 34.2886 1.64636 34.7612C2.11892 35.2337 2.7596 35.4996 3.42791 35.5005H23.8411C24.4153 35.4998 24.972 35.3033 25.4194 34.9436C25.8668 34.5838 26.1782 34.0822 26.3022 33.5216C26.343 33.3439 26.3631 33.162 26.362 32.9796V6.26409C26.3611 5.59578 26.0952 4.95511 25.6227 4.48254C25.1501 4.00997 24.5094 3.74408 23.8411 3.74316ZM5.67784 8.34386H21.5912C21.7583 8.34386 21.9186 8.41026 22.0368 8.52845C22.155 8.64664 22.2214 8.80694 22.2214 8.97409C22.2214 9.14123 22.155 9.30154 22.0368 9.41973C21.9186 9.53792 21.7583 9.60432 21.5912 9.60432H5.67784C5.51069 9.60432 5.35039 9.53792 5.2322 9.41973C5.114 9.30154 5.04761 9.14123 5.04761 8.97409C5.04761 8.80694 5.114 8.64664 5.2322 8.52845C5.35039 8.41026 5.51069 8.34386 5.67784 8.34386ZM5.67784 14.5579H21.5912C21.7583 14.5579 21.9186 14.6243 22.0368 14.7425C22.155 14.8607 22.2214 15.021 22.2214 15.1882C22.2214 15.3553 22.155 15.5156 22.0368 15.6338C21.9186 15.752 21.7583 15.8184 21.5912 15.8184H5.67784C5.51069 15.8184 5.35039 15.752 5.2322 15.6338C5.114 15.5156 5.04761 15.3553 5.04761 15.1882C5.04761 15.021 5.114 14.8607 5.2322 14.7425C5.35039 14.6243 5.51069 14.5579 5.67784 14.5579ZM15.2889 21.9632H5.67784C5.51069 21.9632 5.35039 21.8968 5.2322 21.7786C5.114 21.6604 5.04761 21.5001 5.04761 21.3329C5.04761 21.1658 5.114 21.0055 5.2322 20.8873C5.35039 20.7691 5.51069 20.7027 5.67784 20.7027H15.2889C15.456 20.7027 15.6163 20.7691 15.7345 20.8873C15.8527 21.0055 15.9191 21.1658 15.9191 21.3329C15.9191 21.5001 15.8527 21.6604 15.7345 21.7786C15.6163 21.8968 15.456 21.9632 15.2889 21.9632ZM24.7865 32.0343C24.7897 32.3218 24.7256 32.6061 24.5992 32.8644C24.4728 33.1227 24.2876 33.3478 24.0585 33.5216C23.728 33.7842 23.3179 33.9264 22.8958 33.925H17.9957C17.8312 33.9169 17.6755 33.8479 17.5591 33.7314C17.4426 33.6149 17.3736 33.4593 17.3655 33.2947C17.3655 33.1276 17.4319 32.9673 17.5501 32.8491C17.6683 32.7309 17.8286 32.6645 17.9957 32.6645H22.8958C23.0629 32.6645 23.2232 32.5981 23.3414 32.4799C23.4596 32.3617 23.526 32.2014 23.526 32.0343V27.0019C23.526 26.8347 23.5924 26.6744 23.7106 26.5562C23.8288 26.438 23.9891 26.3716 24.1562 26.3716C24.3234 26.3716 24.4837 26.438 24.6019 26.5562C24.7201 26.6744 24.7865 26.8347 24.7865 27.0019V32.0343Z" fill="white"/>
<path d="M27.5721 0.5H7.15573C6.58092 0.501319 6.0237 0.69833 5.5758 1.0586C5.1279 1.41887 4.81602 1.92091 4.69153 2.48208H23.8411C24.8437 2.48291 25.8051 2.88158 26.514 3.59054C27.223 4.29951 27.6217 5.26084 27.6225 6.26347V32.2605C28.282 32.2464 28.9099 31.9748 29.3716 31.5036C29.8333 31.0325 30.0923 30.3993 30.093 29.7396V3.02093C30.0921 2.35262 29.8262 1.71194 29.3536 1.23938C28.8811 0.766808 28.2404 0.500917 27.5721 0.5Z" fill="white"/>
</svg>
