<svg width="33" height="34" viewBox="0 0 33 34" fill="none" xmlns="http://www.w3.org/2000/svg">
<path d="M25.0888 22.4921C24.0107 21.3954 22.6647 21.3954 21.5935 22.4921C20.7763 23.3269 19.9592 24.1618 19.1557 25.0108C18.936 25.2443 18.7506 25.2938 18.4827 25.1381C17.954 24.841 17.3909 24.6004 16.8827 24.275C14.5136 22.7397 12.5291 20.7657 10.7711 18.5442C9.89901 17.4405 9.12304 16.2589 8.58055 14.9288C8.47068 14.6599 8.49128 14.4831 8.70415 14.2637C9.52133 13.4501 10.3179 12.6153 11.1213 11.7804C12.2407 10.6201 12.2407 9.26166 11.1145 8.09428C10.4758 7.42922 9.83721 6.77831 9.19858 6.11325C8.53935 5.43405 7.88698 4.74776 7.22089 4.07563C6.14277 2.99314 4.79684 2.99314 3.72559 4.08271C2.90155 4.91757 2.11185 5.77365 1.27407 6.59436C0.498104 7.35139 0.106685 8.27823 0.0242814 9.36072C-0.106191 11.1224 0.312695 12.7851 0.903256 14.4052C2.11185 17.7588 3.9522 20.7374 6.18397 23.4684C9.19858 27.1616 12.7969 30.0836 17.0063 32.192C18.9016 33.1401 20.8656 33.8688 23.0012 33.9891C24.4708 34.074 25.748 33.6919 26.7712 32.5104C27.4716 31.7038 28.2613 30.968 29.003 30.1968C30.1017 29.0507 30.1086 27.6639 29.0167 26.5319C27.712 25.1806 26.4004 23.8363 25.0888 22.4921Z" fill="white"/>
<path d="M23.7772 16.8528L26.3111 16.407C25.9129 14.0086 24.8141 11.8365 23.1455 10.1102C21.3806 8.29191 19.1489 7.14575 16.6905 6.79199L16.3334 9.41685C18.2356 9.69278 19.966 10.5772 21.3326 11.9851C22.6236 13.3152 23.4682 14.9991 23.7772 16.8528Z" fill="white"/>
<path d="M27.7395 5.50441C24.8141 2.49043 21.1128 0.587232 17.027 0L16.6699 2.62485C20.1995 3.13426 23.3995 4.78275 25.9266 7.37931C28.3232 9.84851 29.8957 12.9686 30.4657 16.4L32.9996 15.9543C32.3335 11.9781 30.5137 8.36982 27.7395 5.50441Z" fill="white"/>
</svg>
