<svg width="29" height="29" viewBox="0 0 29 29" fill="none" xmlns="http://www.w3.org/2000/svg">
<path d="M7.71875 0.9375C7.46183 0.9375 7.21542 1.03956 7.03374 1.22124C6.85207 1.40292 6.75 1.64932 6.75 1.90625C6.75 2.16318 6.85207 2.40958 7.03374 2.59126C7.21542 2.77294 7.46183 2.875 7.71875 2.875H24.7552L1.22135 26.4088C0.843128 26.7871 0.843128 27.4005 1.22135 27.7788C1.59965 28.157 2.21296 28.157 2.59126 27.7788L26.1251 4.24491V21.2813C26.1251 21.5383 26.2272 21.7847 26.4088 21.9664C26.5905 22.148 26.8369 22.2501 27.0938 22.2501C27.3508 22.2501 27.5972 22.148 27.7789 21.9664C27.9605 21.7847 28.0626 21.5383 28.0626 21.2813V1.90635C28.0626 1.64943 27.9605 1.40304 27.7788 1.22137C27.5972 1.0397 27.3508 0.937622 27.0938 0.937597H7.71885L7.71875 0.9375Z" fill="white"/>
</svg>
