<svg width="57" height="57" viewBox="0 0 57 57" fill="none" xmlns="http://www.w3.org/2000/svg">
<rect width="57" height="57" fill="#202329"/>
<g clip-path="url(#clip0_43_74)">
<path fill-rule="evenodd" clip-rule="evenodd" d="M23.4247 14H27.4686V21.5478C27.4686 22.3199 27.1438 23.0536 26.5603 23.5995C25.9768 24.1454 25.1925 24.4492 24.3671 24.4492C23.5418 24.4492 22.7575 24.1454 22.1739 23.5995C21.6166 23.0781 21.2989 22.392 21.2678 21.6559L23.4247 14ZM36.6971 31.5732C37.0529 31.5732 37.343 31.8446 37.343 32.1774V43H40.7185C40.9954 43 41.2578 42.8984 41.4533 42.7157C41.6478 42.5338 41.7535 42.2893 41.7535 42.0325V26.3136C41.4652 26.3541 41.191 26.3789 40.8986 26.3789C39.5242 26.3789 38.2186 25.8728 37.247 24.9638C37.0708 24.7991 36.9182 24.6293 36.7657 24.4461C36.6132 24.6293 36.4605 24.7991 36.2844 24.9638C35.3127 25.8728 34.0072 26.3789 32.6328 26.3789C31.2585 26.3789 29.9529 25.8728 28.9812 24.9638C28.8051 24.7991 28.6525 24.6293 28.4999 24.4461C28.3474 24.6293 28.1948 24.7991 28.0187 24.9638C27.047 25.8728 25.7414 26.3789 24.3671 26.3789C22.9927 26.3789 21.6872 25.8728 20.7155 24.9638C20.5394 24.7991 20.3867 24.6293 20.2342 24.4461C20.0817 24.6293 19.929 24.7991 19.7529 24.9638C18.7813 25.8728 17.4757 26.3789 16.1013 26.3789C15.809 26.3789 15.5347 26.3541 15.2465 26.3135V42.0317C15.2465 42.2892 15.3564 42.5336 15.5507 42.7154C15.745 42.8972 16.0063 42.9999 16.2815 42.9999H30.5601V32.1774C30.5601 31.8446 30.8502 31.5732 31.206 31.5732H36.6971ZM37.7607 21.3029L35.7033 14H39.6662L43.9918 21.7604C43.9324 22.4619 43.6246 23.101 43.0917 23.5995C42.5081 24.1454 41.7238 24.4492 40.8985 24.4492C40.0732 24.4492 39.2889 24.1454 38.7053 23.5995C38.1219 23.0537 37.7947 22.3202 37.7947 21.5478C37.7947 21.4652 37.7832 21.3828 37.7607 21.3029ZM34.8261 23.5995C34.2425 24.1454 33.4582 24.4492 32.6329 24.4492C31.8076 24.4492 31.0232 24.1454 30.4397 23.5995C29.8562 23.0537 29.5314 22.3199 29.5314 21.5478V14H33.5753L35.7321 21.6559C35.701 22.392 35.3833 23.0781 34.8261 23.5995ZM19.2393 21.3029L21.2967 14H17.3337L13.0082 21.7604C13.0676 22.4619 13.3754 23.101 13.9083 23.5995C14.4918 24.1454 15.2761 24.4492 16.1015 24.4492C16.9268 24.4492 17.7111 24.1454 18.2946 23.5995C18.8781 23.0537 19.2029 22.3199 19.2029 21.5478C19.2029 21.4652 19.2168 21.3827 19.2393 21.3029ZM19.7533 32.1774C19.7533 31.8446 20.0434 31.5732 20.3991 31.5732H24.1255C24.4812 31.5732 24.7713 31.8446 24.7713 32.1774V35.6634C24.7713 35.9962 24.4811 36.2675 24.1255 36.2675H20.3991C20.0434 36.2675 19.7533 35.9962 19.7533 35.6634V32.1774Z" fill="white"/>
</g>
<defs>
<clipPath id="clip0_43_74">
<rect width="31" height="29" fill="white" transform="translate(13 14)"/>
</clipPath>
</defs>
</svg>
