<svg width="44" height="44" viewBox="0 0 44 44" fill="none" xmlns="http://www.w3.org/2000/svg">
<g clip-path="url(#clip0_19_330)">
<path d="M16.9609 0C7.94082 0 0.5 6.36777 0.5 14.1797C0.5 18.0469 2.42311 21.7335 5.62305 24.3891V32.768L10.9141 27.354C12.8542 28.0244 14.8948 28.3594 16.9609 28.3594C25.9811 28.3594 33.3379 21.9913 33.3379 14.1797C33.3379 6.36777 25.9811 0 16.9609 0ZM10.6621 15.4688H8.14258V12.8906H10.6621V15.4688ZM18.2207 15.4688H15.7012V12.8906H18.2207V15.4688ZM25.7793 15.4688H23.2598V12.8906H25.7793V15.4688Z" fill="white"/>
<path d="M43.416 27.0703C43.416 29.442 42.5342 31.7368 40.8965 33.6962V44L35.4293 37.5375C33.5396 38.2851 31.5742 38.6718 29.5586 38.6718C23.537 38.6718 18.3972 35.4233 16.5076 30.9116C16.6585 30.9375 16.8097 30.9375 16.9609 30.9375C26.4597 30.9375 34.3204 24.6983 35.6307 16.603C40.2919 18.5108 43.416 22.5327 43.416 27.0703Z" fill="white"/>
</g>
<defs>
<clipPath id="clip0_19_330">
<rect width="43" height="44" fill="white" transform="translate(0.5)"/>
</clipPath>
</defs>
</svg>
