<svg width="27" height="27" viewBox="0 0 27 27" fill="none" xmlns="http://www.w3.org/2000/svg">
<path d="M24.4 2.4H23.6V0.4C23.6 0.18 23.42 0 23.2 0C22.98 0 22.8 0.18 22.8 0.4V2.4H18.6V0.4C18.6 0.18 18.42 0 18.2 0C17.98 0 17.8 0.18 17.8 0.4V2.4H13.6V0.4C13.6 0.18 13.42 0 13.2 0C12.98 0 12.8 0.18 12.8 0.4V2.4H8.6V0.4C8.6 0.18 8.42 0 8.2 0C7.98 0 7.8 0.18 7.8 0.4V2.4H3.6V0.4C3.6 0.18 3.42 0 3.2 0C2.98 0 2.8 0.18 2.8 0.4V2.4H2C0.896 2.4 0 3.296 0 4.4V7.2H26.4V4.4C26.4 3.296 25.504 2.4 24.4 2.4Z" fill="white"/>
<path d="M0 8V24.4C0 25.504 0.896 26.4 2 26.4H24.4C25.504 26.4 26.4 25.504 26.4 24.4V8H0ZM5.2 25.2C5.2 25.42 5.02 25.6 4.8 25.6H2.4C2.18 25.6 2 25.42 2 25.2V22.8C2 22.58 2.18 22.4 2.4 22.4H4.8C5.02 22.4 5.2 22.58 5.2 22.8V25.2ZM5.2 20.8C5.2 21.02 5.02 21.2 4.8 21.2H2.4C2.18 21.2 2 21.02 2 20.8V18.4C2 18.18 2.18 18 2.4 18H4.8C5.02 18 5.2 18.18 5.2 18.4V20.8ZM5.2 16.4C5.2 16.62 5.02 16.8 4.8 16.8H2.4C2.18 16.8 2 16.62 2 16.4V14C2 13.78 2.18 13.6 2.4 13.6H4.8C5.02 13.6 5.2 13.78 5.2 14V16.4ZM10 25.2C10 25.42 9.82 25.6 9.6 25.6H7.2C6.98 25.6 6.8 25.42 6.8 25.2V22.8C6.8 22.58 6.98 22.4 7.2 22.4H9.6C9.82 22.4 10 22.58 10 22.8V25.2ZM10 20.8C10 21.02 9.82 21.2 9.6 21.2H7.2C6.98 21.2 6.8 21.02 6.8 20.8V18.4C6.8 18.18 6.98 18 7.2 18H9.6C9.82 18 10 18.18 10 18.4V20.8ZM10 16.4C10 16.62 9.82 16.8 9.6 16.8H7.2C6.98 16.8 6.8 16.62 6.8 16.4V14C6.8 13.78 6.98 13.6 7.2 13.6H9.6C9.82 13.6 10 13.78 10 14V16.4ZM14.8 25.2C14.8 25.42 14.62 25.6 14.4 25.6H12C11.78 25.6 11.6 25.42 11.6 25.2V22.8C11.6 22.58 11.78 22.4 12 22.4H14.4C14.62 22.4 14.8 22.58 14.8 22.8V25.2ZM14.8 20.8C14.8 21.02 14.62 21.2 14.4 21.2H12C11.78 21.2 11.6 21.02 11.6 20.8V18.4C11.6 18.18 11.78 18 12 18H14.4C14.62 18 14.8 18.18 14.8 18.4V20.8ZM14.8 16.4C14.8 16.62 14.62 16.8 14.4 16.8H12C11.78 16.8 11.6 16.62 11.6 16.4V14C11.6 13.78 11.78 13.6 12 13.6H14.4C14.62 13.6 14.8 13.78 14.8 14V16.4ZM14.8 12C14.8 12.22 14.62 12.4 14.4 12.4H12C11.78 12.4 11.6 12.22 11.6 12V9.6C11.6 9.38 11.78 9.2 12 9.2H14.4C14.62 9.2 14.8 9.38 14.8 9.6V12ZM19.6 20.8C19.6 21.02 19.42 21.2 19.2 21.2H16.8C16.58 21.2 16.4 21.02 16.4 20.8V18.4C16.4 18.18 16.58 18 16.8 18H19.2C19.42 18 19.6 18.18 19.6 18.4V20.8ZM19.6 16.4C19.6 16.62 19.42 16.8 19.2 16.8H16.8C16.58 16.8 16.4 16.62 16.4 16.4V14C16.4 13.78 16.58 13.6 16.8 13.6H19.2C19.42 13.6 19.6 13.78 19.6 14V16.4ZM19.6 12C19.6 12.22 19.42 12.4 19.2 12.4H16.8C16.58 12.4 16.4 12.22 16.4 12V9.6C16.4 9.38 16.58 9.2 16.8 9.2H19.2C19.42 9.2 19.6 9.38 19.6 9.6V12ZM24.4 20.8C24.4 21.02 24.22 21.2 24 21.2H21.6C21.38 21.2 21.2 21.02 21.2 20.8V18.4C21.2 18.18 21.38 18 21.6 18H24C24.22 18 24.4 18.18 24.4 18.4V20.8ZM24.4 16.4C24.4 16.62 24.22 16.8 24 16.8H21.6C21.38 16.8 21.2 16.62 21.2 16.4V14C21.2 13.78 21.38 13.6 21.6 13.6H24C24.22 13.6 24.4 13.78 24.4 14V16.4ZM24.4 12C24.4 12.22 24.22 12.4 24 12.4H21.6C21.38 12.4 21.2 12.22 21.2 12V9.6C21.2 9.38 21.38 9.2 21.6 9.2H24C24.22 9.2 24.4 9.38 24.4 9.6V12Z" fill="white"/>
</svg>
