<svg width="72" height="72" viewBox="0 0 72 72" fill="none" xmlns="http://www.w3.org/2000/svg">
<path d="M72 36C72 16.1177 55.8823 0 36 0C16.1177 0 0 16.1177 0 36C0 55.8823 16.1177 72 36 72C55.8823 72 72 55.8823 72 36Z" fill="url(#paint0_linear_57_250)"/>
<path d="M25.2942 49.1604V22.8394C25.2942 20.8308 27.8674 19.7263 29.5856 20.9944L47.3728 34.1549C47.6691 34.3619 47.9109 34.6374 48.078 34.9579C48.245 35.2783 48.3322 35.6344 48.3322 35.9958C48.3322 36.3572 48.245 36.7133 48.078 37.0338C47.9109 37.3542 47.6691 37.6297 47.3728 37.8367L29.5856 51.0054C27.8674 52.2735 25.2942 51.169 25.2942 49.1604Z" fill="white"/>
<defs>
<linearGradient id="paint0_linear_57_250" x1="8.16" y1="6.99152e-06" x2="75.2424" y2="4.76639" gradientUnits="userSpaceOnUse">
<stop stop-color="#E5803B"/>
<stop offset="1" stop-color="#E26008"/>
</linearGradient>
</defs>
</svg>
