<svg width="37" height="38" viewBox="0 0 37 38" fill="none" xmlns="http://www.w3.org/2000/svg">
<path d="M18.5 38C28.7173 38 37 29.4934 37 19C37 8.50659 28.7173 0 18.5 0C8.28273 0 0 8.50659 0 19C0 29.4934 8.28273 38 18.5 38Z" fill="#F96600"/>
<path d="M17.3626 23.8535C15.5694 23.6614 13.9527 23.2058 12.5694 22.096C12.3971 21.9578 12.2205 21.824 12.0628 21.6642C11.4573 21.0661 11.3964 20.3817 11.8757 19.6778C12.2856 19.0733 12.9731 18.9114 13.6899 19.259C13.8276 19.3305 13.9597 19.4128 14.0852 19.5051C15.3671 20.3999 16.8781 20.8851 18.4279 20.8997C19.9778 20.9143 21.4972 20.4576 22.7949 19.5872C23.0428 19.3808 23.3289 19.228 23.6358 19.1381C23.9212 19.0514 24.2266 19.0658 24.5031 19.179C24.7795 19.2922 25.0109 19.4975 25.1599 19.762C25.5384 20.3968 25.5342 21.0143 25.0674 21.5066C24.3521 22.2496 23.4876 22.8236 22.5342 23.1885C21.606 23.531 20.64 23.7537 19.6583 23.8514C19.8055 24.0176 19.8685 24.0975 19.9694 24.1925C21.3002 25.5678 22.6372 26.9367 23.9638 28.3142C24.1751 28.5115 24.3184 28.7739 24.3723 29.062C24.4261 29.3501 24.3875 29.6483 24.2623 29.9119C24.1348 30.2009 23.9272 30.4449 23.6655 30.6135C23.4038 30.782 23.0995 30.8677 22.7907 30.8598C22.4294 30.8232 22.0951 30.6473 21.8552 30.3675C20.8503 29.329 19.8265 28.3099 18.8426 27.2519C18.5567 26.9453 18.4222 27.0036 18.1657 27.2692C17.1545 28.3488 16.1265 29.3916 15.0943 30.4366C14.9026 30.6548 14.6458 30.8013 14.3642 30.8533C14.0826 30.9053 13.7922 30.8597 13.5386 30.7238C13.2638 30.592 13.0319 30.3815 12.8708 30.1176C12.7097 29.8537 12.6262 29.5476 12.6304 29.2361C12.6608 28.8512 12.8357 28.4935 13.1181 28.2386C14.4384 26.887 15.7544 25.5347 17.0662 24.1817C17.1545 24.0889 17.2386 23.9917 17.3626 23.8535Z" fill="white"/>
<path d="M18.4536 19.1467C17.2943 19.1398 16.1631 18.7794 15.2035 18.1113C14.2439 17.4431 13.4992 16.4974 13.0637 15.3939C12.6282 14.2905 12.5216 13.079 12.7574 11.9133C12.9932 10.7475 13.5608 9.6799 14.3882 8.84591C15.2156 8.01191 16.2656 7.44908 17.4049 7.22878C18.5442 7.00849 19.7215 7.14066 20.7876 7.60853C21.8537 8.07641 22.7604 8.85891 23.3929 9.85679C24.0253 10.8547 24.3549 12.023 24.34 13.2135C24.3189 14.7999 23.6885 16.3134 22.5861 17.4247C21.4836 18.5359 19.9983 19.1548 18.4536 19.1467ZM21.3611 13.1293C21.3594 12.5474 21.1896 11.979 20.8732 11.4962C20.5568 11.0133 20.1081 10.6378 19.5838 10.4171C19.0594 10.1963 18.4831 10.1403 17.9278 10.2562C17.3725 10.372 16.8631 10.6545 16.4642 11.0678C16.0653 11.4812 15.7948 12.0068 15.6869 12.5781C15.579 13.1494 15.6386 13.7408 15.8581 14.2773C16.0776 14.8138 16.4473 15.2714 16.9201 15.5921C17.393 15.9127 17.9479 16.0821 18.5146 16.0787C18.8903 16.0778 19.2621 16.0008 19.6087 15.8519C19.9554 15.7031 20.27 15.4854 20.5344 15.2114C20.7989 14.9373 21.0081 14.6123 21.15 14.255C21.2918 13.8977 21.3636 13.5152 21.3611 13.1293Z" fill="white"/>
</svg>
