<svg width="24" height="23" viewBox="0 0 24 23" fill="none" xmlns="http://www.w3.org/2000/svg">
<path d="M23.0333 15.3372L16.4872 11.4999L23.0331 7.66253C23.1457 7.5964 23.2264 7.49015 23.2573 7.36696C23.2882 7.24377 23.2667 7.11389 23.198 7.00598L21.2745 3.99278C21.1312 3.76788 20.824 3.69697 20.5894 3.83449L14.3407 7.49779V0.47749C14.3407 0.213916 14.1175 0 13.8425 0H10.1571C9.88209 0 9.65887 0.213916 9.65887 0.47749V7.49779L3.41 3.83473C3.17482 3.69721 2.86839 3.76788 2.72489 3.99301L0.801376 7.00622C0.732616 7.11413 0.711191 7.24401 0.742083 7.3672C0.772975 7.49039 0.853693 7.59663 0.966298 7.66277L7.51239 11.4999L0.966298 15.3372C0.853693 15.4031 0.772975 15.5096 0.742083 15.6326C0.711191 15.756 0.732616 15.8859 0.801376 15.9938L2.72489 19.0067C2.86839 19.2316 3.17482 19.3028 3.41 19.1653L9.65887 15.502V22.5223C9.65887 22.7858 9.88209 22.9998 10.1571 22.9998H13.8425C14.1175 22.9998 14.3407 22.7858 14.3407 22.5223V15.5022L20.5896 19.165C20.8243 19.3026 21.1315 19.2316 21.2747 19.007L23.1982 15.9938C23.267 15.8859 23.2884 15.756 23.2575 15.6328C23.2269 15.5094 23.1459 15.4034 23.0333 15.3372Z" fill="#DA251D"/>
</svg>
