<svg width="37" height="38" viewBox="0 0 37 38" fill="none" xmlns="http://www.w3.org/2000/svg">
<path d="M18.5 38C28.7173 38 37 29.4934 37 19C37 8.50659 28.7173 0 18.5 0C8.28273 0 0 8.50659 0 19C0 29.4934 8.28273 38 18.5 38Z" fill="#FF0000"/>
<path d="M24.5539 11.8525H12.4461C11.9623 11.8525 11.4832 11.9505 11.0362 12.1407C10.5892 12.3309 10.1831 12.6098 9.84104 12.9613C9.49901 13.3128 9.22778 13.7301 9.04283 14.1893C8.85789 14.6485 8.76286 15.1406 8.76318 15.6375V22.3625C8.76286 22.8595 8.85789 23.3516 9.04283 23.8108C9.22778 24.27 9.49901 24.6873 9.84104 25.0388C10.1831 25.3903 10.5892 25.6691 11.0362 25.8594C11.4832 26.0496 11.9623 26.1475 12.4461 26.1475H24.5539C25.0378 26.1475 25.5169 26.0496 25.9639 25.8594C26.4109 25.6691 26.817 25.3903 27.159 25.0388C27.501 24.6873 27.7723 24.27 27.9572 23.8108C28.1422 23.3516 28.2372 22.8595 28.2369 22.3625V15.6375C28.2372 15.1406 28.1422 14.6485 27.9572 14.1893C27.7723 13.7301 27.501 13.3128 27.159 12.9613C26.817 12.6098 26.4109 12.3309 25.9639 12.1407C25.5169 11.9505 25.0378 11.8525 24.5539 11.8525ZM15.9344 22.065V15.935L21.0657 19L15.9344 22.065Z" fill="white"/>
</svg>
