<svg width="34" height="34" viewBox="0 0 34 34" fill="none" xmlns="http://www.w3.org/2000/svg">
<g clip-path="url(#clip0_57_57)">
<path d="M0.246338 11.0957V28.8217C0.246338 30.393 1.5247 31.6713 3.09597 31.6713H30.643C32.2142 31.6713 33.4926 30.393 33.4926 28.8217V11.0957H0.246338ZM11.2553 27.3546C11.2553 27.7161 10.9623 28.0091 10.6009 28.0091H6.42177C6.06028 28.0091 5.7673 27.716 5.7673 27.3546V23.0309C5.7673 22.6694 6.06034 22.3764 6.42177 22.3764H10.6009C10.9624 22.3764 11.2553 22.6694 11.2553 23.0309V27.3546ZM11.2553 19.1411C11.2553 19.5026 10.9623 19.7956 10.6009 19.7956H6.42177C6.06028 19.7956 5.7673 19.5025 5.7673 19.1411V14.8173C5.7673 14.4558 6.06034 14.1629 6.42177 14.1629H10.6009C10.9624 14.1629 11.2553 14.4559 11.2553 14.8173V19.1411ZM19.6135 27.3546C19.6135 27.7161 19.3205 28.0091 18.9591 28.0091H14.78C14.4185 28.0091 14.1255 27.716 14.1255 27.3546V23.0309C14.1255 22.6694 14.4185 22.3764 14.78 22.3764H18.9591C19.3205 22.3764 19.6135 22.6694 19.6135 23.0309V27.3546ZM19.6135 19.1411C19.6135 19.5026 19.3205 19.7956 18.9591 19.7956H14.78C14.4185 19.7956 14.1255 19.5025 14.1255 19.1411V14.8173C14.1255 14.4558 14.4185 14.1629 14.78 14.1629H18.9591C19.3205 14.1629 19.6135 14.4559 19.6135 14.8173V19.1411ZM27.9717 27.3546C27.9717 27.7161 27.6787 28.0091 27.3172 28.0091H23.1381C22.7767 28.0091 22.4837 27.716 22.4837 27.3546V23.0309C22.4837 22.6694 22.7767 22.3764 23.1381 22.3764H27.3172C27.6787 22.3764 27.9717 22.6694 27.9717 23.0309V27.3546ZM27.9717 19.1411C27.9717 19.5026 27.6787 19.7956 27.3172 19.7956H23.1381C22.7767 19.7956 22.4837 19.5025 22.4837 19.1411V14.8173C22.4837 14.4558 22.7767 14.1629 23.1381 14.1629H27.3172C27.6787 14.1629 27.9717 14.4559 27.9717 14.8173V19.1411Z" fill="#DA251D"/>
<path d="M30.643 4.78102H27.9325V3.31792C27.9325 2.77572 27.493 2.33618 26.9508 2.33618C26.4086 2.33618 25.969 2.77572 25.969 3.31792V4.78102H22.8919V3.31792C22.8919 2.77572 22.4524 2.33618 21.9102 2.33618C21.368 2.33618 20.9284 2.77572 20.9284 3.31792V4.78102H17.8513V3.31792C17.8513 2.77572 17.4117 2.33618 16.8695 2.33618C16.3273 2.33618 15.8878 2.77572 15.8878 3.31792V4.78102H12.8106V3.31792C12.8106 2.77572 12.3711 2.33618 11.8289 2.33618C11.2867 2.33618 10.8472 2.77572 10.8472 3.31792V4.78102H7.77006V3.31792C7.77006 2.77572 7.33052 2.33618 6.78832 2.33618C6.24612 2.33618 5.80658 2.77572 5.80658 3.31792V4.78102H5.80645H3.09597C1.5247 4.78102 0.246338 6.05937 0.246338 7.63065V9.78666H33.4926V7.63065C33.4926 6.05937 32.2142 4.78102 30.643 4.78102Z" fill="#DA251D"/>
</g>
<defs>
<clipPath id="clip0_57_57">
<rect width="33.2463" height="33.2463" fill="white" transform="translate(0.246338 0.380615)"/>
</clipPath>
</defs>
</svg>
