<svg width="37" height="38" viewBox="0 0 37 38" fill="none" xmlns="http://www.w3.org/2000/svg">
<path d="M18.5 38C28.7173 38 37 29.4934 37 19C37 8.50659 28.7173 0 18.5 0C8.28273 0 0 8.50659 0 19C0 29.4934 8.28273 38 18.5 38Z" fill="#4169E1"/>
<path d="M29.1628 26.4359C28.6246 26.5136 25.9926 26.4359 25.8559 26.4359C25.1755 26.4448 24.5191 26.178 24.029 25.6932C23.4741 25.1448 22.9779 24.5402 22.4355 23.9659C22.2751 23.7916 22.1015 23.6306 21.9163 23.4844C21.4832 23.1411 21.0543 23.2189 20.8504 23.7435C20.6911 24.3105 20.58 24.8906 20.5183 25.4773C20.4825 26.0084 20.1546 26.3409 19.5743 26.3776C19.2148 26.397 18.8554 26.4035 18.5001 26.3949C17.2053 26.3864 15.9309 26.0631 14.7812 25.4514C13.5372 24.7394 12.4533 23.7661 11.6004 22.5949C10.1982 20.7553 9.07769 18.7344 8.077 16.6509C8.02445 16.5473 6.99854 14.3061 6.97331 14.2003C6.88081 13.8462 6.97331 13.5073 7.25712 13.3907C7.43791 13.3194 10.8184 13.3907 10.8751 13.3907C11.1264 13.3884 11.3719 13.4684 11.576 13.619C11.7801 13.7696 11.9322 13.9831 12.0104 14.2284C12.6353 15.8717 13.4908 17.4124 14.5499 18.8014C14.6981 18.9871 14.8716 19.15 15.065 19.285C15.3404 19.4772 15.601 19.4102 15.7146 19.0842C15.8491 18.6318 15.9282 18.164 15.95 17.6916C15.9689 16.7545 15.95 16.137 15.8996 15.2022C15.8659 14.6019 15.6599 14.0751 14.798 13.9067C14.5331 13.8592 14.51 13.6347 14.6802 13.4101C15.0355 12.9437 15.5212 12.8703 16.0656 12.8423C16.8771 12.7948 17.6886 12.8272 18.5001 12.8423H18.6767C19.0298 12.8409 19.3822 12.8779 19.7278 12.9524C19.9321 12.9948 20.1176 13.1039 20.2567 13.2635C20.3957 13.423 20.4808 13.6244 20.4993 13.8376C20.5409 14.0741 20.5585 14.3143 20.5519 14.5544C20.5309 15.5778 20.4825 16.5991 20.472 17.6225C20.4623 18.0277 20.4983 18.4327 20.5792 18.8294C20.6948 19.3735 21.0585 19.5095 21.4201 19.1166C21.8883 18.6086 22.3178 18.0643 22.7046 17.4886C23.3887 16.4394 23.953 15.3129 24.3864 14.1312C24.6219 13.5245 24.8069 13.3907 25.4376 13.3907H29.024C29.2373 13.3868 29.4499 13.4159 29.6547 13.477C29.7272 13.4966 29.795 13.5313 29.8538 13.5791C29.9127 13.6268 29.9613 13.6864 29.9966 13.7543C30.0319 13.8222 30.0532 13.8969 30.0591 13.9736C30.0651 14.0504 30.0555 14.1276 30.031 14.2003C29.8544 15.0078 29.4298 15.6966 28.9799 16.3594C28.2504 17.4217 27.481 18.4559 26.7347 19.5009C26.6403 19.6395 26.5539 19.7837 26.4761 19.9327C26.1944 20.4531 26.2154 20.7445 26.6233 21.1785C27.275 21.8651 27.9708 22.5107 28.5994 23.2189C29.0609 23.7337 29.4774 24.2893 29.8439 24.8792C30.3043 25.6111 30.0205 26.3107 29.1628 26.4359Z" fill="white"/>
</svg>
